<svg width="16" height="12" viewBox="0 0 16 12" fill="none" xmlns="http://www.w3.org/2000/svg">
<path d="M11.42 7.55593L14.832 10.6239H12.08L10.044 8.79193L11.42 7.55593ZM11.412 6.67993C11.276 6.67993 11.144 6.73193 11.04 6.82393L9.32398 8.36793C9.09198 8.57993 9.07198 8.93993 9.28398 9.17593C9.29598 9.18793 9.31198 9.20393 9.32398 9.21593L11.616 11.2799C11.724 11.3719 11.86 11.4239 12 11.4239H15.428C15.432 11.4239 15.432 11.4239 15.436 11.4239C15.748 11.4239 16 11.1679 16 10.8559C16 10.6919 15.932 10.5359 15.812 10.4279L11.804 6.82393C11.704 6.73593 11.576 6.68393 11.44 6.67993C11.432 6.67993 11.42 6.67993 11.412 6.67993Z" fill="white"/>
<path d="M11.42 7.55593L14.832 10.6239H12.08L10.044 8.79193L11.42 7.55593ZM11.412 6.67993C11.276 6.67993 11.144 6.73193 11.04 6.82393L9.32398 8.36793C9.09198 8.57993 9.07198 8.93993 9.28398 9.17593C9.29598 9.18793 9.31198 9.20393 9.32398 9.21593L11.616 11.2799C11.724 11.3719 11.86 11.4239 12 11.4239H15.428C15.432 11.4239 15.432 11.4239 15.436 11.4239C15.748 11.4239 16 11.1679 16 10.8559C16 10.6919 15.932 10.5359 15.812 10.4279L11.804 6.82393C11.704 6.73593 11.576 6.68393 11.44 6.67993C11.432 6.67993 11.42 6.67993 11.412 6.67993Z" fill="#6C6A6A"/>
<path d="M14.832 0.800001L11.42 3.86801L10.048 2.632L12.084 0.800001H14.832ZM15.428 0H12C11.86 0 11.724 0.0520001 11.616 0.144L9.32398 2.208C9.09198 2.42 9.07198 2.78 9.28398 3.012C9.29598 3.028 9.31198 3.044 9.32398 3.056L11.04 4.60001C11.148 4.70001 11.284 4.74801 11.42 4.74801C11.556 4.74801 11.696 4.70001 11.804 4.60001L15.812 0.996001C16.044 0.784001 16.064 0.424001 15.852 0.188C15.744 0.0680001 15.592 0 15.428 0Z" fill="white"/>
<path d="M14.832 0.800001L11.42 3.86801L10.048 2.632L12.084 0.800001H14.832ZM15.428 0H12C11.86 0 11.724 0.0520001 11.616 0.144L9.32398 2.208C9.09198 2.42 9.07198 2.78 9.28398 3.012C9.29598 3.028 9.31198 3.044 9.32398 3.056L11.04 4.60001C11.148 4.70001 11.284 4.74801 11.42 4.74801C11.556 4.74801 11.696 4.70001 11.804 4.60001L15.812 0.996001C16.044 0.784001 16.064 0.424001 15.852 0.188C15.744 0.0680001 15.592 0 15.428 0Z" fill="#6C6A6A"/>
<path d="M3.91601 0.800001L9.37201 5.71201L3.91601 10.624H1.168L5.96801 6.30801L6.62801 5.71201L5.96801 5.11601L1.168 0.800001H3.91601ZM4.00001 0H0.572001C0.256 0 0 0.252 0 0.568001C0 0.732001 0.0680001 0.888001 0.188 0.996001L5.43201 5.71201L0.188 10.428C-0.0440001 10.64 -0.0640001 11 0.148 11.236C0.256 11.356 0.408001 11.424 0.572001 11.424H4.00001C4.14001 11.424 4.28001 11.372 4.38401 11.28L10.096 6.13601C10.332 5.92801 10.352 5.56401 10.14 5.33201C10.128 5.31601 10.112 5.30001 10.096 5.28801L4.38401 0.144C4.28001 0.0520001 4.14001 0 4.00001 0Z" fill="white"/>
<path d="M3.91601 0.800001L9.37201 5.71201L3.91601 10.624H1.168L5.96801 6.30801L6.62801 5.71201L5.96801 5.11601L1.168 0.800001H3.91601ZM4.00001 0H0.572001C0.256 0 0 0.252 0 0.568001C0 0.732001 0.0680001 0.888001 0.188 0.996001L5.43201 5.71201L0.188 10.428C-0.0440001 10.64 -0.0640001 11 0.148 11.236C0.256 11.356 0.408001 11.424 0.572001 11.424H4.00001C4.14001 11.424 4.28001 11.372 4.38401 11.28L10.096 6.13601C10.332 5.92801 10.352 5.56401 10.14 5.33201C10.128 5.31601 10.112 5.30001 10.096 5.28801L4.38401 0.144C4.28001 0.0520001 4.14001 0 4.00001 0Z" fill="#6C6A6A"/>
</svg>
