<svg width="21" height="20" viewBox="0 0 21 20" fill="none" xmlns="http://www.w3.org/2000/svg">
<path d="M16.5928 7.3524L16.5928 7.35144C16.35 4.30359 13.7321 1.95 10.5585 1.95C7.30661 1.95 4.63897 4.42076 4.51523 7.56627L4.51522 7.56627L4.5152 7.56728L4.5109 7.79185H4.51089L4.51089 7.79279L4.50981 11.391L3.59035 13.601L3.59022 13.601L3.58905 13.6045L3.54663 13.7325L3.54605 13.7323L3.54476 13.7401L3.52367 13.8675L3.5236 13.8675L3.5233 13.8703C3.47061 14.3548 3.72393 14.794 4.15614 14.9739L4.1561 14.974L4.15921 14.9751L4.28367 15.0175L4.28364 15.0176L4.28682 15.0185C4.37561 15.0424 4.46735 15.0546 4.5597 15.0546L8.01216 15.054L8.01616 15.1662L8.01613 15.1662L8.01623 15.1676C8.10257 16.4978 9.20879 17.55 10.5608 17.55C11.9125 17.55 13.0185 16.4983 13.1053 15.1686L13.1053 15.1686L13.1054 15.1669L13.1089 15.054L16.5621 15.0546V15.0547L16.5658 15.0544L16.7003 15.0444L16.7003 15.0449L16.7078 15.0432L16.8241 15.0164L16.8241 15.0165L16.8266 15.0158C17.2997 14.881 17.6121 14.476 17.6121 14.0046H17.6122L17.612 14.0013L17.6033 13.87L17.6036 13.87L17.6026 13.8646L17.5874 13.7784L17.5874 13.7784L17.5869 13.7763C17.5736 13.7165 17.5551 13.6578 17.5314 13.6009L17.4852 13.6202L17.5314 13.6009L16.6098 11.388L16.6108 7.80216L16.6108 7.80114L16.6063 7.57661L16.6063 7.57661L16.6062 7.57461L16.5928 7.3524ZM5.60984 11.5098L5.61081 11.51V11.5V7.80262L5.61469 7.59926L5.62781 7.38866C5.83576 4.95518 7.96039 3.05 10.5585 3.05C13.2303 3.05 15.4026 5.06525 15.5068 7.60984C15.5068 7.61001 15.5069 7.61018 15.5069 7.61035L15.5109 7.81241V7.81289L15.5108 11.5H15.5098L15.5118 11.5098L15.5502 11.702L15.5492 11.7022L15.5531 11.7114L16.4885 13.9565L4.63466 13.9546L5.56856 11.7114L5.56947 11.7118L5.57143 11.702L5.60984 11.5098ZM9.11764 15.1417L9.11308 15.054H12.0081L12.0041 15.1409C11.9333 15.8752 11.3147 16.4494 10.562 16.45L10.4199 16.4432C9.73188 16.3769 9.18432 15.8296 9.11764 15.1417Z" fill="white"/>
<path d="M16.5928 7.3524L16.5928 7.35144C16.35 4.30359 13.7321 1.95 10.5585 1.95C7.30661 1.95 4.63897 4.42076 4.51523 7.56627L4.51522 7.56627L4.5152 7.56728L4.5109 7.79185H4.51089L4.51089 7.79279L4.50981 11.391L3.59035 13.601L3.59022 13.601L3.58905 13.6045L3.54663 13.7325L3.54605 13.7323L3.54476 13.7401L3.52367 13.8675L3.5236 13.8675L3.5233 13.8703C3.47061 14.3548 3.72393 14.794 4.15614 14.9739L4.1561 14.974L4.15921 14.9751L4.28367 15.0175L4.28364 15.0176L4.28682 15.0185C4.37561 15.0424 4.46735 15.0546 4.5597 15.0546L8.01216 15.054L8.01616 15.1662L8.01613 15.1662L8.01623 15.1676C8.10257 16.4978 9.20879 17.55 10.5608 17.55C11.9125 17.55 13.0185 16.4983 13.1053 15.1686L13.1053 15.1686L13.1054 15.1669L13.1089 15.054L16.5621 15.0546V15.0547L16.5658 15.0544L16.7003 15.0444L16.7003 15.0449L16.7078 15.0432L16.8241 15.0164L16.8241 15.0165L16.8266 15.0158C17.2997 14.881 17.6121 14.476 17.6121 14.0046H17.6122L17.612 14.0013L17.6033 13.87L17.6036 13.87L17.6026 13.8646L17.5874 13.7784L17.5874 13.7784L17.5869 13.7763C17.5736 13.7165 17.5551 13.6578 17.5314 13.6009L17.4852 13.6202L17.5314 13.6009L16.6098 11.388L16.6108 7.80216L16.6108 7.80114L16.6063 7.57661L16.6063 7.57661L16.6062 7.57461L16.5928 7.3524ZM5.60984 11.5098L5.61081 11.51V11.5V7.80262L5.61469 7.59926L5.62781 7.38866C5.83576 4.95518 7.96039 3.05 10.5585 3.05C13.2303 3.05 15.4026 5.06525 15.5068 7.60984C15.5068 7.61001 15.5069 7.61018 15.5069 7.61035L15.5109 7.81241V7.81289L15.5108 11.5H15.5098L15.5118 11.5098L15.5502 11.702L15.5492 11.7022L15.5531 11.7114L16.4885 13.9565L4.63466 13.9546L5.56856 11.7114L5.56947 11.7118L5.57143 11.702L5.60984 11.5098ZM9.11764 15.1417L9.11308 15.054H12.0081L12.0041 15.1409C11.9333 15.8752 11.3147 16.4494 10.562 16.45L10.4199 16.4432C9.73188 16.3769 9.18432 15.8296 9.11764 15.1417Z" fill="#454242"/>
<path d="M16.5928 7.3524L16.5928 7.35144C16.35 4.30359 13.7321 1.95 10.5585 1.95C7.30661 1.95 4.63897 4.42076 4.51523 7.56627L4.51522 7.56627L4.5152 7.56728L4.5109 7.79185H4.51089L4.51089 7.79279L4.50981 11.391L3.59035 13.601L3.59022 13.601L3.58905 13.6045L3.54663 13.7325L3.54605 13.7323L3.54476 13.7401L3.52367 13.8675L3.5236 13.8675L3.5233 13.8703C3.47061 14.3548 3.72393 14.794 4.15614 14.9739L4.1561 14.974L4.15921 14.9751L4.28367 15.0175L4.28364 15.0176L4.28682 15.0185C4.37561 15.0424 4.46735 15.0546 4.5597 15.0546L8.01216 15.054L8.01616 15.1662L8.01613 15.1662L8.01623 15.1676C8.10257 16.4978 9.20879 17.55 10.5608 17.55C11.9125 17.55 13.0185 16.4983 13.1053 15.1686L13.1053 15.1686L13.1054 15.1669L13.1089 15.054L16.5621 15.0546V15.0547L16.5658 15.0544L16.7003 15.0444L16.7003 15.0449L16.7078 15.0432L16.8241 15.0164L16.8241 15.0165L16.8266 15.0158C17.2997 14.881 17.6121 14.476 17.6121 14.0046H17.6122L17.612 14.0013L17.6033 13.87L17.6036 13.87L17.6026 13.8646L17.5874 13.7784L17.5874 13.7784L17.5869 13.7763C17.5736 13.7165 17.5551 13.6578 17.5314 13.6009L17.4852 13.6202L17.5314 13.6009L16.6098 11.388L16.6108 7.80216L16.6108 7.80114L16.6063 7.57661L16.6063 7.57661L16.6062 7.57461L16.5928 7.3524ZM5.60984 11.5098L5.61081 11.51V11.5V7.80262L5.61469 7.59926L5.62781 7.38866C5.83576 4.95518 7.96039 3.05 10.5585 3.05C13.2303 3.05 15.4026 5.06525 15.5068 7.60984C15.5068 7.61001 15.5069 7.61018 15.5069 7.61035L15.5109 7.81241V7.81289L15.5108 11.5H15.5098L15.5118 11.5098L15.5502 11.702L15.5492 11.7022L15.5531 11.7114L16.4885 13.9565L4.63466 13.9546L5.56856 11.7114L5.56947 11.7118L5.57143 11.702L5.60984 11.5098ZM9.11764 15.1417L9.11308 15.054H12.0081L12.0041 15.1409C11.9333 15.8752 11.3147 16.4494 10.562 16.45L10.4199 16.4432C9.73188 16.3769 9.18432 15.8296 9.11764 15.1417Z" stroke="white" stroke-width="0.1"/>
<path d="M16.5928 7.3524L16.5928 7.35144C16.35 4.30359 13.7321 1.95 10.5585 1.95C7.30661 1.95 4.63897 4.42076 4.51523 7.56627L4.51522 7.56627L4.5152 7.56728L4.5109 7.79185H4.51089L4.51089 7.79279L4.50981 11.391L3.59035 13.601L3.59022 13.601L3.58905 13.6045L3.54663 13.7325L3.54605 13.7323L3.54476 13.7401L3.52367 13.8675L3.5236 13.8675L3.5233 13.8703C3.47061 14.3548 3.72393 14.794 4.15614 14.9739L4.1561 14.974L4.15921 14.9751L4.28367 15.0175L4.28364 15.0176L4.28682 15.0185C4.37561 15.0424 4.46735 15.0546 4.5597 15.0546L8.01216 15.054L8.01616 15.1662L8.01613 15.1662L8.01623 15.1676C8.10257 16.4978 9.20879 17.55 10.5608 17.55C11.9125 17.55 13.0185 16.4983 13.1053 15.1686L13.1053 15.1686L13.1054 15.1669L13.1089 15.054L16.5621 15.0546V15.0547L16.5658 15.0544L16.7003 15.0444L16.7003 15.0449L16.7078 15.0432L16.8241 15.0164L16.8241 15.0165L16.8266 15.0158C17.2997 14.881 17.6121 14.476 17.6121 14.0046H17.6122L17.612 14.0013L17.6033 13.87L17.6036 13.87L17.6026 13.8646L17.5874 13.7784L17.5874 13.7784L17.5869 13.7763C17.5736 13.7165 17.5551 13.6578 17.5314 13.6009L17.4852 13.6202L17.5314 13.6009L16.6098 11.388L16.6108 7.80216L16.6108 7.80114L16.6063 7.57661L16.6063 7.57661L16.6062 7.57461L16.5928 7.3524ZM5.60984 11.5098L5.61081 11.51V11.5V7.80262L5.61469 7.59926L5.62781 7.38866C5.83576 4.95518 7.96039 3.05 10.5585 3.05C13.2303 3.05 15.4026 5.06525 15.5068 7.60984C15.5068 7.61001 15.5069 7.61018 15.5069 7.61035L15.5109 7.81241V7.81289L15.5108 11.5H15.5098L15.5118 11.5098L15.5502 11.702L15.5492 11.7022L15.5531 11.7114L16.4885 13.9565L4.63466 13.9546L5.56856 11.7114L5.56947 11.7118L5.57143 11.702L5.60984 11.5098ZM9.11764 15.1417L9.11308 15.054H12.0081L12.0041 15.1409C11.9333 15.8752 11.3147 16.4494 10.562 16.45L10.4199 16.4432C9.73188 16.3769 9.18432 15.8296 9.11764 15.1417Z" stroke="#454242" stroke-width="0.1"/>
</svg>
