<svg width="16" height="15" viewBox="0 0 16 15" fill="none" xmlns="http://www.w3.org/2000/svg">
<path d="M15.0005 14.7098H0.9995C0.447776 14.7098 0 14.262 0 13.7103V4.63265C0 4.08093 0.447776 3.63315 0.9995 3.63315H15.0005C15.5522 3.63315 16 4.08093 16 4.63265V13.7143C16 14.262 15.5522 14.7098 15.0005 14.7098ZM1.1994 13.5104H14.8006V4.83255H1.1994V13.5104Z" fill="white"/>
<path d="M15.0005 14.7098H0.9995C0.447776 14.7098 0 14.262 0 13.7103V4.63265C0 4.08093 0.447776 3.63315 0.9995 3.63315H15.0005C15.5522 3.63315 16 4.08093 16 4.63265V13.7143C16 14.262 15.5522 14.7098 15.0005 14.7098ZM1.1994 13.5104H14.8006V4.83255H1.1994V13.5104Z" fill="#454242"/>
<path d="M11.7944 5.33267C11.4625 5.33267 11.1947 5.06481 11.1947 4.73297V2.26795C11.1947 2.13602 11.0907 2.03207 10.9588 2.03207H5.04173C4.91379 2.03207 4.80585 2.13602 4.80585 2.26795V4.73297C4.80585 5.06481 4.53798 5.33267 4.20615 5.33267C3.87431 5.33267 3.60645 5.06481 3.60645 4.73297V2.26795C3.60645 1.47635 4.25012 0.832672 5.04173 0.832672H10.9588C11.7504 0.832672 12.3941 1.47635 12.3941 2.26795V4.73297C12.3941 5.06081 12.1262 5.33267 11.7944 5.33267Z" fill="white"/>
<path d="M11.7944 5.33267C11.4625 5.33267 11.1947 5.06481 11.1947 4.73297V2.26795C11.1947 2.13602 11.0907 2.03207 10.9588 2.03207H5.04173C4.91379 2.03207 4.80585 2.13602 4.80585 2.26795V4.73297C4.80585 5.06481 4.53798 5.33267 4.20615 5.33267C3.87431 5.33267 3.60645 5.06481 3.60645 4.73297V2.26795C3.60645 1.47635 4.25012 0.832672 5.04173 0.832672H10.9588C11.7504 0.832672 12.3941 1.47635 12.3941 2.26795V4.73297C12.3941 5.06081 12.1262 5.33267 11.7944 5.33267Z" fill="#454242"/>
</svg>
