<svg width="20" height="21" viewBox="0 0 20 21" fill="none" xmlns="http://www.w3.org/2000/svg">
<path d="M5.5 10.5C5.5 8.01472 7.51472 6 10 6C11.0717 6 12.0555 6.37406 12.8288 7H11.75C11.3358 7 11 7.33579 11 7.75C11 8.16421 11.3358 8.5 11.75 8.5H14.25C14.6642 8.5 15 8.16421 15 7.75V5.25C15 4.83579 14.6642 4.5 14.25 4.5C13.8358 4.5 13.5 4.83579 13.5 5.25V5.62618C12.5151 4.91784 11.3062 4.5 10 4.5C6.68629 4.5 4 7.18629 4 10.5C4 13.8137 6.68629 16.5 10 16.5C13.3137 16.5 16 13.8137 16 10.5C16 10.0858 15.6642 9.75 15.25 9.75C14.8358 9.75 14.5 10.0858 14.5 10.5C14.5 12.9853 12.4853 15 10 15C7.51472 15 5.5 12.9853 5.5 10.5Z" fill="white"/>
<path d="M5.5 10.5C5.5 8.01472 7.51472 6 10 6C11.0717 6 12.0555 6.37406 12.8288 7H11.75C11.3358 7 11 7.33579 11 7.75C11 8.16421 11.3358 8.5 11.75 8.5H14.25C14.6642 8.5 15 8.16421 15 7.75V5.25C15 4.83579 14.6642 4.5 14.25 4.5C13.8358 4.5 13.5 4.83579 13.5 5.25V5.62618C12.5151 4.91784 11.3062 4.5 10 4.5C6.68629 4.5 4 7.18629 4 10.5C4 13.8137 6.68629 16.5 10 16.5C13.3137 16.5 16 13.8137 16 10.5C16 10.0858 15.6642 9.75 15.25 9.75C14.8358 9.75 14.5 10.0858 14.5 10.5C14.5 12.9853 12.4853 15 10 15C7.51472 15 5.5 12.9853 5.5 10.5Z" fill="#1D1A1A"/>
</svg>
