<svg width="15" height="17" viewBox="0 0 15 17" fill="none" xmlns="http://www.w3.org/2000/svg">
<path d="M9.20312 6.37343L11.97 3.96742L9.20312 1.6015V6.37343Z" fill="white"/>
<path d="M9.20312 6.37343L11.97 3.96742L9.20312 1.6015V6.37343Z" fill="#EC873E"/>
<path d="M7.83969 16.9999C4.03016 16.9999 0.902344 13.9122 0.902344 10.0626C0.902344 6.21296 4.03016 3.12524 7.83969 3.12524C8.24069 3.12524 8.60159 3.16534 9.00259 3.20544C9.3234 3.24554 9.564 3.56635 9.4838 3.88715C9.4437 4.20795 9.1229 4.44855 8.80209 4.36835C8.48129 4.32825 8.16049 4.28815 7.83969 4.28815C4.67177 4.32825 2.10535 6.89467 2.10535 10.0626C2.10535 13.2305 4.67177 15.7969 7.83969 15.7969C11.0076 15.7969 13.574 13.2305 13.574 10.0626C13.574 9.98239 13.574 9.86209 13.574 9.78189C13.574 9.46108 13.8146 9.18038 14.1354 9.14028C14.4963 9.14028 14.7369 9.38089 14.777 9.70169C14.777 9.82199 14.777 9.90219 14.777 10.0225C14.777 13.9122 11.6492 16.9999 7.83969 16.9999Z" fill="white"/>
<path d="M7.83969 16.9999C4.03016 16.9999 0.902344 13.9122 0.902344 10.0626C0.902344 6.21296 4.03016 3.12524 7.83969 3.12524C8.24069 3.12524 8.60159 3.16534 9.00259 3.20544C9.3234 3.24554 9.564 3.56635 9.4838 3.88715C9.4437 4.20795 9.1229 4.44855 8.80209 4.36835C8.48129 4.32825 8.16049 4.28815 7.83969 4.28815C4.67177 4.32825 2.10535 6.89467 2.10535 10.0626C2.10535 13.2305 4.67177 15.7969 7.83969 15.7969C11.0076 15.7969 13.574 13.2305 13.574 10.0626C13.574 9.98239 13.574 9.86209 13.574 9.78189C13.574 9.46108 13.8146 9.18038 14.1354 9.14028C14.4963 9.14028 14.7369 9.38089 14.777 9.70169C14.777 9.82199 14.777 9.90219 14.777 10.0225C14.777 13.9122 11.6492 16.9999 7.83969 16.9999Z" fill="#EC873E"/>
<path d="M9.20307 6.97494C9.12287 6.97494 9.04267 6.97494 8.96246 6.93484C8.76196 6.85464 8.60156 6.61404 8.60156 6.37344V1.60151C8.60156 1.36091 8.72186 1.16041 8.96246 1.04011C9.16297 0.959906 9.44367 0.959906 9.60407 1.12031L12.371 3.48622C12.4913 3.60652 12.5715 3.76692 12.5715 3.92732C12.5715 4.08773 12.4913 4.28823 12.371 4.36843L9.60407 6.73434C9.48377 6.89474 9.32337 6.97494 9.20307 6.97494ZM9.80457 2.92482V5.09023L11.0477 4.00753L9.80457 2.92482Z" fill="#EC873E"/>
</svg>
