<svg width="13" height="17" viewBox="0 0 13 17" fill="none" xmlns="http://www.w3.org/2000/svg">
<path d="M9.12 2.03267L11.6 4.51267V15.2327C11.6 15.4327 11.4 15.6327 11.2 15.6327H1.6C1.4 15.6327 1.2 15.4327 1.2 15.2327V2.43267C1.2 2.23267 1.4 2.03267 1.6 2.03267H9.12ZM9.6 0.832672H1.6C0.72 0.832672 0 1.55267 0 2.43267V15.2327C0 16.1127 0.72 16.8327 1.6 16.8327H11.2C12.08 16.8327 12.8 16.1127 12.8 15.2327V4.03267L9.6 0.832672Z" fill="white"/>
<path d="M9.12 2.03267L11.6 4.51267V15.2327C11.6 15.4327 11.4 15.6327 11.2 15.6327H1.6C1.4 15.6327 1.2 15.4327 1.2 15.2327V2.43267C1.2 2.23267 1.4 2.03267 1.6 2.03267H9.12ZM9.6 0.832672H1.6C0.72 0.832672 0 1.55267 0 2.43267V15.2327C0 16.1127 0.72 16.8327 1.6 16.8327H11.2C12.08 16.8327 12.8 16.1127 12.8 15.2327V4.03267L9.6 0.832672Z" fill="#454242"/>
<path d="M8.4 2.03267V4.03267V5.23267H9.6H11.6V15.2327C11.6 15.4327 11.4 15.6327 11.2 15.6327H1.6C1.4 15.6327 1.2 15.4327 1.2 15.2327V2.43267C1.2 2.23267 1.4 2.03267 1.6 2.03267H8.4ZM9.6 0.832672H1.6C0.72 0.832672 0 1.55267 0 2.43267V15.2327C0 16.1127 0.72 16.8327 1.6 16.8327H11.2C12.08 16.8327 12.8 16.1127 12.8 15.2327V4.03267H9.6V0.832672Z" fill="white"/>
<path d="M8.4 2.03267V4.03267V5.23267H9.6H11.6V15.2327C11.6 15.4327 11.4 15.6327 11.2 15.6327H1.6C1.4 15.6327 1.2 15.4327 1.2 15.2327V2.43267C1.2 2.23267 1.4 2.03267 1.6 2.03267H8.4ZM9.6 0.832672H1.6C0.72 0.832672 0 1.55267 0 2.43267V15.2327C0 16.1127 0.72 16.8327 1.6 16.8327H11.2C12.08 16.8327 12.8 16.1127 12.8 15.2327V4.03267H9.6V0.832672Z" fill="#454242"/>
<path d="M9.12 2.03267L11.6 4.51267V15.2327C11.6 15.4327 11.4 15.6327 11.2 15.6327H1.6C1.4 15.6327 1.2 15.4327 1.2 15.2327V2.43267C1.2 2.23267 1.4 2.03267 1.6 2.03267H9.12ZM9.6 0.832672H1.6C0.72 0.832672 0 1.55267 0 2.43267V15.2327C0 16.1127 0.72 16.8327 1.6 16.8327H11.2C12.08 16.8327 12.8 16.1127 12.8 15.2327V4.03267L9.6 0.832672Z" fill="white"/>
<path d="M9.12 2.03267L11.6 4.51267V15.2327C11.6 15.4327 11.4 15.6327 11.2 15.6327H1.6C1.4 15.6327 1.2 15.4327 1.2 15.2327V2.43267C1.2 2.23267 1.4 2.03267 1.6 2.03267H9.12ZM9.6 0.832672H1.6C0.72 0.832672 0 1.55267 0 2.43267V15.2327C0 16.1127 0.72 16.8327 1.6 16.8327H11.2C12.08 16.8327 12.8 16.1127 12.8 15.2327V4.03267L9.6 0.832672Z" fill="#454242"/>
<path d="M8.4 2.03267V4.03267V5.23267H9.6H11.6V15.2327C11.6 15.4327 11.4 15.6327 11.2 15.6327H1.6C1.4 15.6327 1.2 15.4327 1.2 15.2327V2.43267C1.2 2.23267 1.4 2.03267 1.6 2.03267H8.4ZM9.6 0.832672H1.6C0.72 0.832672 0 1.55267 0 2.43267V15.2327C0 16.1127 0.72 16.8327 1.6 16.8327H11.2C12.08 16.8327 12.8 16.1127 12.8 15.2327V4.03267H9.6V0.832672Z" fill="white"/>
<path d="M8.4 2.03267V4.03267V5.23267H9.6H11.6V15.2327C11.6 15.4327 11.4 15.6327 11.2 15.6327H1.6C1.4 15.6327 1.2 15.4327 1.2 15.2327V2.43267C1.2 2.23267 1.4 2.03267 1.6 2.03267H8.4ZM9.6 0.832672H1.6C0.72 0.832672 0 1.55267 0 2.43267V15.2327C0 16.1127 0.72 16.8327 1.6 16.8327H11.2C12.08 16.8327 12.8 16.1127 12.8 15.2327V4.03267H9.6V0.832672Z" fill="#454242"/>
<path d="M9.40039 9.43257H3.00039C2.68039 9.43257 2.40039 9.15257 2.40039 8.83257C2.40039 8.51257 2.68039 8.23257 3.00039 8.23257H9.40039C9.72039 8.23257 10.0004 8.51257 10.0004 8.83257C10.0004 9.15257 9.72039 9.43257 9.40039 9.43257Z" fill="white"/>
<path d="M9.40039 9.43257H3.00039C2.68039 9.43257 2.40039 9.15257 2.40039 8.83257C2.40039 8.51257 2.68039 8.23257 3.00039 8.23257H9.40039C9.72039 8.23257 10.0004 8.51257 10.0004 8.83257C10.0004 9.15257 9.72039 9.43257 9.40039 9.43257Z" fill="#454242"/>
<path d="M9.40039 12.6328H3.00039C2.68039 12.6328 2.40039 12.3528 2.40039 12.0328C2.40039 11.7128 2.68039 11.4328 3.00039 11.4328H9.40039C9.72039 11.4328 10.0004 11.7128 10.0004 12.0328C10.0004 12.3528 9.72039 12.6328 9.40039 12.6328Z" fill="white"/>
<path d="M9.40039 12.6328H3.00039C2.68039 12.6328 2.40039 12.3528 2.40039 12.0328C2.40039 11.7128 2.68039 11.4328 3.00039 11.4328H9.40039C9.72039 11.4328 10.0004 11.7128 10.0004 12.0328C10.0004 12.3528 9.72039 12.6328 9.40039 12.6328Z" fill="#454242"/>
</svg>
