<svg width="13" height="16" viewBox="0 0 13 16" fill="none" xmlns="http://www.w3.org/2000/svg">
<path d="M9.12 1.2L11.6 3.68V14.4C11.6 14.6 11.4 14.8 11.2 14.8H1.6C1.4 14.8 1.2 14.6 1.2 14.4V1.6C1.2 1.4 1.4 1.2 1.6 1.2H9.12ZM9.6 0H1.6C0.72 0 0 0.72 0 1.6V14.4C0 15.28 0.72 16 1.6 16H11.2C12.08 16 12.8 15.28 12.8 14.4V3.2L9.6 0Z" fill="#FF730E"/>
<path d="M8.4 1.2V3.2V4.4H9.6H11.6V14.4C11.6 14.6 11.4 14.8 11.2 14.8H1.6C1.4 14.8 1.2 14.6 1.2 14.4V1.6C1.2 1.4 1.4 1.2 1.6 1.2H8.4ZM9.6 0H1.6C0.72 0 0 0.72 0 1.6V14.4C0 15.28 0.72 16 1.6 16H11.2C12.08 16 12.8 15.28 12.8 14.4V3.2H9.6V0Z" fill="#FF730E"/>
<path d="M9.12 1.2L11.6 3.68V14.4C11.6 14.6 11.4 14.8 11.2 14.8H1.6C1.4 14.8 1.2 14.6 1.2 14.4V1.6C1.2 1.4 1.4 1.2 1.6 1.2H9.12ZM9.6 0H1.6C0.72 0 0 0.72 0 1.6V14.4C0 15.28 0.72 16 1.6 16H11.2C12.08 16 12.8 15.28 12.8 14.4V3.2L9.6 0Z" fill="#FF730E"/>
<path d="M8.4 1.2V3.2V4.4H9.6H11.6V14.4C11.6 14.6 11.4 14.8 11.2 14.8H1.6C1.4 14.8 1.2 14.6 1.2 14.4V1.6C1.2 1.4 1.4 1.2 1.6 1.2H8.4ZM9.6 0H1.6C0.72 0 0 0.72 0 1.6V14.4C0 15.28 0.72 16 1.6 16H11.2C12.08 16 12.8 15.28 12.8 14.4V3.2H9.6V0Z" fill="#FF730E"/>
<path d="M9.40039 8.5999H3.00039C2.68039 8.5999 2.40039 8.3199 2.40039 7.9999C2.40039 7.6799 2.68039 7.3999 3.00039 7.3999H9.40039C9.72039 7.3999 10.0004 7.6799 10.0004 7.9999C10.0004 8.3199 9.72039 8.5999 9.40039 8.5999Z" fill="#FF730E"/>
<path d="M9.40039 11.8001H3.00039C2.68039 11.8001 2.40039 11.5201 2.40039 11.2001C2.40039 10.8801 2.68039 10.6001 3.00039 10.6001H9.40039C9.72039 10.6001 10.0004 10.8801 10.0004 11.2001C10.0004 11.5201 9.72039 11.8001 9.40039 11.8001Z" fill="#FF730E"/>
</svg>
