<svg width="15" height="17" viewBox="0 0 15 17" fill="none" xmlns="http://www.w3.org/2000/svg">
<path d="M7.8245 0.838751C7.90322 0.7933 8.00021 0.793301 8.07893 0.838751L8.40393 0.275834L8.07894 0.838751L14.2239 4.38653C14.3026 4.43198 14.3511 4.51598 14.3511 4.60688V11.7024C14.3511 11.7933 14.3026 11.8773 14.2239 11.9228L8.07894 15.4706L8.40393 16.0335L8.07893 15.4706C8.00021 15.516 7.90322 15.516 7.8245 15.4706L7.4995 16.0335L7.8245 15.4706L1.67956 11.9228C1.60084 11.8773 1.55234 11.7933 1.55234 11.7024V4.60688C1.55234 4.51598 1.60084 4.43198 1.67956 4.38653L7.8245 0.838751L7.50425 0.284061L7.8245 0.838751Z" stroke="white" stroke-width="1.3"/>
<path d="M7.8245 0.838751C7.90322 0.7933 8.00021 0.793301 8.07893 0.838751L8.40393 0.275834L8.07894 0.838751L14.2239 4.38653C14.3026 4.43198 14.3511 4.51598 14.3511 4.60688V11.7024C14.3511 11.7933 14.3026 11.8773 14.2239 11.9228L8.07894 15.4706L8.40393 16.0335L8.07893 15.4706C8.00021 15.516 7.90322 15.516 7.8245 15.4706L7.4995 16.0335L7.8245 15.4706L1.67956 11.9228C1.60084 11.8773 1.55234 11.7933 1.55234 11.7024V4.60688C1.55234 4.51598 1.60084 4.43198 1.67956 4.38653L7.8245 0.838751L7.50425 0.284061L7.8245 0.838751Z" stroke="#EC873E" stroke-width="1.3"/>
<circle cx="7.95061" cy="8.15471" r="2.06331" stroke="white" stroke-width="1.3"/>
<circle cx="7.95061" cy="8.15471" r="2.06331" stroke="#EC873E" stroke-width="1.3"/>
</svg>
