<svg width="16" height="16" viewBox="0 0 16 16" fill="none" xmlns="http://www.w3.org/2000/svg">
<path d="M7.83496 0C6.30582 0 4.81102 0.469191 3.53959 1.34824C2.26816 2.22729 1.27721 3.47672 0.692034 4.93853C0.106859 6.40034 -0.0462405 8.00887 0.252079 9.56072C0.550398 11.1126 1.28674 12.538 2.368 13.6569C3.44926 14.7757 4.82688 15.5376 6.32663 15.8463C7.82639 16.155 9.38091 15.9965 10.7937 15.391C12.2064 14.7855 13.4139 13.7602 14.2634 12.4446C15.113 11.129 15.5664 9.58225 15.5664 8C15.5664 5.87827 14.7518 3.84344 13.3019 2.34315C11.852 0.842855 9.88547 0 7.83496 0ZM11.4726 6.304L7.10048 10.828C7.02867 10.9024 6.94339 10.9614 6.84954 11.0016C6.75568 11.0419 6.65508 11.0626 6.55347 11.0626C6.45187 11.0626 6.35127 11.0419 6.25741 11.0016C6.16355 10.9614 6.07827 10.9024 6.00647 10.828L3.81847 8.564C3.74664 8.48967 3.68966 8.40143 3.65078 8.30431C3.61191 8.2072 3.5919 8.10311 3.5919 7.998C3.5919 7.89288 3.61191 7.78879 3.65078 7.69168C3.68966 7.59456 3.74664 7.50633 3.81847 7.432C3.8903 7.35767 3.97559 7.29871 4.06944 7.25848C4.1633 7.21826 4.26389 7.19755 4.36547 7.19755C4.46706 7.19755 4.56766 7.21826 4.66151 7.25848C4.75537 7.29871 4.84064 7.35767 4.91248 7.432L6.55154 9.128L10.3786 5.168C10.5242 5.01789 10.7214 4.93377 10.927 4.93414C11.1325 4.93452 11.3295 5.01936 11.4745 5.17C11.6196 5.32064 11.7009 5.52475 11.7005 5.73741C11.7002 5.95008 11.6182 6.15388 11.4726 6.304V6.304Z" fill="#28A745"/>
</svg>
