<svg width="14" height="14" viewBox="0 0 14 14" fill="none" xmlns="http://www.w3.org/2000/svg">
<path d="M13.9999 0H13.4749C13.4049 0 9.13493 0.035 5.94993 2.52C4.82993 2.275 2.13493 1.925 0.139928 3.92C-7.15144e-05 4.06 -0.0350715 4.235 -7.15191e-05 4.41C0.0349285 4.585 0.174928 4.725 0.349928 4.795L3.42993 5.775C3.18493 6.335 2.97493 6.965 2.83493 7.665L2.79993 7.945L6.08993 11.235L6.36993 11.165C7.06993 11.025 7.69993 10.815 8.25993 10.57L9.23993 13.65C9.30993 13.825 9.44993 13.965 9.62493 14C9.65993 14 9.69493 14 9.76493 14C9.90493 14 10.0449 13.93 10.1499 13.86C12.1449 11.865 11.7949 9.135 11.5499 8.05C14.0349 4.9 14.0699 0.595 14.0699 0.525V0H13.9999ZM12.7399 2.555L11.4799 1.295C12.0749 1.19 12.5999 1.12 12.9499 1.085C12.8799 1.435 12.8449 1.96 12.7399 2.555ZM3.91993 4.795L1.60993 4.06C2.76493 3.325 4.05993 3.29 4.96993 3.395C4.93493 3.43 4.89993 3.5 4.82993 3.535C4.72493 3.675 4.61993 3.78 4.51493 3.92C4.47993 3.99 4.40993 4.025 4.37493 4.095C4.23493 4.305 4.09493 4.48 3.95493 4.725C3.95493 4.76 3.91993 4.795 3.91993 4.795ZM9.90493 12.39L9.16993 10.08C9.20493 10.08 9.20493 10.045 9.23993 10.045C9.44993 9.905 9.65993 9.765 9.86993 9.625C9.93993 9.59 9.97493 9.52 10.0449 9.485C10.1849 9.38 10.3249 9.275 10.4299 9.135C10.4649 9.1 10.5349 9.065 10.5699 8.995C10.6749 9.94 10.6399 11.235 9.90493 12.39ZM10.5349 7.56C9.86993 8.33 9.13493 8.925 8.29493 9.38C7.69993 9.695 7.10493 9.905 6.40493 10.08L3.91993 7.595C4.05993 6.93 4.30493 6.3 4.61993 5.705C4.61993 5.705 4.61993 5.705 4.61993 5.67C5.07493 4.83 5.66993 4.095 6.40493 3.465L6.43993 3.43C7.17493 2.8 8.08493 2.31 9.09993 1.89C9.48493 1.75 9.86993 1.61 10.2199 1.505L12.4249 3.71C12.3199 4.095 12.2149 4.445 12.0399 4.83C11.6549 5.915 11.1649 6.79 10.5349 7.56Z" fill="black"/>
<path d="M9.1352 3.39499C8.7502 3.39499 8.3652 3.53499 8.1202 3.81499C7.8402 4.09499 7.7002 4.44499 7.7002 4.82999C7.7002 5.21499 7.8402 5.59999 8.1202 5.84499C8.4002 6.12499 8.7502 6.26499 9.1352 6.26499C9.5202 6.26499 9.9052 6.12499 10.1502 5.84499C10.4302 5.56499 10.5702 5.21499 10.5702 4.82999C10.5702 4.44499 10.4302 4.09499 10.1502 3.84999C9.9052 3.56999 9.5202 3.39499 9.1352 3.39499ZM9.4152 5.14499C9.3452 5.21499 9.2402 5.24999 9.1352 5.24999C9.0302 5.24999 8.9252 5.21499 8.8552 5.14499C8.6802 4.96999 8.6802 4.72499 8.8552 4.58499C8.9252 4.51499 9.0302 4.47999 9.1352 4.47999C9.2402 4.47999 9.3452 4.51499 9.4152 4.58499C9.5902 4.72499 9.5902 5.00499 9.4152 5.14499Z" fill="black"/>
<path d="M1.22469 10.29C1.15469 10.36 0.979688 10.535 0.489688 11.9C0.349688 12.355 0.454687 12.845 0.804687 13.195C1.04969 13.44 1.36469 13.58 1.67969 13.58C1.81969 13.58 1.95969 13.545 2.09969 13.51C3.46469 13.02 3.63969 12.845 3.70969 12.775C4.37469 12.11 4.37469 10.99 3.70969 10.325C3.00969 9.62499 1.92469 9.62499 1.22469 10.29ZM2.97469 12.005C2.83469 12.11 2.23969 12.32 1.74969 12.495C1.67969 12.53 1.60969 12.495 1.53969 12.46C1.46969 12.39 1.46969 12.32 1.46969 12.25C1.64469 11.76 1.88969 11.165 1.95969 11.025C2.23969 10.78 2.65969 10.78 2.90469 11.06C3.21969 11.305 3.21969 11.725 2.97469 12.005Z" fill="black"/>
</svg>
