<svg width="13" height="14" viewBox="0 0 13 14" fill="none" xmlns="http://www.w3.org/2000/svg">
<path d="M8.94484 1.05L11.1148 3.22V12.6C11.1148 12.775 10.9398 12.95 10.7648 12.95H2.36484C2.18984 12.95 2.01484 12.775 2.01484 12.6V1.4C2.01484 1.225 2.18984 1.05 2.36484 1.05H8.94484ZM9.36484 0H2.36484C1.59484 0 0.964844 0.63 0.964844 1.4V12.6C0.964844 13.37 1.59484 14 2.36484 14H10.7648C11.5348 14 12.1648 13.37 12.1648 12.6V2.8L9.36484 0Z" fill="white"/>
<path d="M8.94484 1.05L11.1148 3.22V12.6C11.1148 12.775 10.9398 12.95 10.7648 12.95H2.36484C2.18984 12.95 2.01484 12.775 2.01484 12.6V1.4C2.01484 1.225 2.18984 1.05 2.36484 1.05H8.94484ZM9.36484 0H2.36484C1.59484 0 0.964844 0.63 0.964844 1.4V12.6C0.964844 13.37 1.59484 14 2.36484 14H10.7648C11.5348 14 12.1648 13.37 12.1648 12.6V2.8L9.36484 0Z" fill="#878686"/>
<path d="M8.31484 1.05V2.8V3.85H9.36484H11.1148V12.6C11.1148 12.775 10.9398 12.95 10.7648 12.95H2.36484C2.18984 12.95 2.01484 12.775 2.01484 12.6V1.4C2.01484 1.225 2.18984 1.05 2.36484 1.05H8.31484ZM9.36484 0H2.36484C1.59484 0 0.964844 0.63 0.964844 1.4V12.6C0.964844 13.37 1.59484 14 2.36484 14H10.7648C11.5348 14 12.1648 13.37 12.1648 12.6V2.8H9.36484V0Z" fill="white"/>
<path d="M8.31484 1.05V2.8V3.85H9.36484H11.1148V12.6C11.1148 12.775 10.9398 12.95 10.7648 12.95H2.36484C2.18984 12.95 2.01484 12.775 2.01484 12.6V1.4C2.01484 1.225 2.18984 1.05 2.36484 1.05H8.31484ZM9.36484 0H2.36484C1.59484 0 0.964844 0.63 0.964844 1.4V12.6C0.964844 13.37 1.59484 14 2.36484 14H10.7648C11.5348 14 12.1648 13.37 12.1648 12.6V2.8H9.36484V0Z" fill="#878686"/>
<path d="M8.94484 1.05L11.1148 3.22V12.6C11.1148 12.775 10.9398 12.95 10.7648 12.95H2.36484C2.18984 12.95 2.01484 12.775 2.01484 12.6V1.4C2.01484 1.225 2.18984 1.05 2.36484 1.05H8.94484ZM9.36484 0H2.36484C1.59484 0 0.964844 0.63 0.964844 1.4V12.6C0.964844 13.37 1.59484 14 2.36484 14H10.7648C11.5348 14 12.1648 13.37 12.1648 12.6V2.8L9.36484 0Z" fill="white"/>
<path d="M8.94484 1.05L11.1148 3.22V12.6C11.1148 12.775 10.9398 12.95 10.7648 12.95H2.36484C2.18984 12.95 2.01484 12.775 2.01484 12.6V1.4C2.01484 1.225 2.18984 1.05 2.36484 1.05H8.94484ZM9.36484 0H2.36484C1.59484 0 0.964844 0.63 0.964844 1.4V12.6C0.964844 13.37 1.59484 14 2.36484 14H10.7648C11.5348 14 12.1648 13.37 12.1648 12.6V2.8L9.36484 0Z" fill="#878686"/>
<path d="M8.31484 1.05V2.8V3.85H9.36484H11.1148V12.6C11.1148 12.775 10.9398 12.95 10.7648 12.95H2.36484C2.18984 12.95 2.01484 12.775 2.01484 12.6V1.4C2.01484 1.225 2.18984 1.05 2.36484 1.05H8.31484ZM9.36484 0H2.36484C1.59484 0 0.964844 0.63 0.964844 1.4V12.6C0.964844 13.37 1.59484 14 2.36484 14H10.7648C11.5348 14 12.1648 13.37 12.1648 12.6V2.8H9.36484V0Z" fill="white"/>
<path d="M8.31484 1.05V2.8V3.85H9.36484H11.1148V12.6C11.1148 12.775 10.9398 12.95 10.7648 12.95H2.36484C2.18984 12.95 2.01484 12.775 2.01484 12.6V1.4C2.01484 1.225 2.18984 1.05 2.36484 1.05H8.31484ZM9.36484 0H2.36484C1.59484 0 0.964844 0.63 0.964844 1.4V12.6C0.964844 13.37 1.59484 14 2.36484 14H10.7648C11.5348 14 12.1648 13.37 12.1648 12.6V2.8H9.36484V0Z" fill="#878686"/>
<path d="M9.18945 7.52491H3.58945C3.30945 7.52491 3.06445 7.27991 3.06445 6.99991C3.06445 6.71991 3.30945 6.47491 3.58945 6.47491H9.18945C9.46945 6.47491 9.71445 6.71991 9.71445 6.99991C9.71445 7.27991 9.46945 7.52491 9.18945 7.52491Z" fill="white"/>
<path d="M9.18945 7.52491H3.58945C3.30945 7.52491 3.06445 7.27991 3.06445 6.99991C3.06445 6.71991 3.30945 6.47491 3.58945 6.47491H9.18945C9.46945 6.47491 9.71445 6.71991 9.71445 6.99991C9.71445 7.27991 9.46945 7.52491 9.18945 7.52491Z" fill="#878686"/>
<path d="M9.18945 10.3251H3.58945C3.30945 10.3251 3.06445 10.0801 3.06445 9.80009C3.06445 9.52009 3.30945 9.27509 3.58945 9.27509H9.18945C9.46945 9.27509 9.71445 9.52009 9.71445 9.80009C9.71445 10.0801 9.46945 10.3251 9.18945 10.3251Z" fill="white"/>
<path d="M9.18945 10.3251H3.58945C3.30945 10.3251 3.06445 10.0801 3.06445 9.80009C3.06445 9.52009 3.30945 9.27509 3.58945 9.27509H9.18945C9.46945 9.27509 9.71445 9.52009 9.71445 9.80009C9.71445 10.0801 9.46945 10.3251 9.18945 10.3251Z" fill="#878686"/>
</svg>
