<svg width="16" height="16" viewBox="0 0 16 16" fill="none" xmlns="http://www.w3.org/2000/svg">
<path d="M7.90234 0C5.85184 0 3.88531 0.842855 2.43538 2.34315C0.985453 3.84344 0.170898 5.87827 0.170898 8C0.170898 10.1217 0.985453 12.1566 2.43538 13.6569C3.88531 15.1571 5.85184 16 7.90234 16C9.95285 16 11.9194 15.1571 13.3693 13.6569C14.8192 12.1566 15.6338 10.1217 15.6338 8C15.6338 5.87827 14.8192 3.84344 13.3693 2.34315C11.9194 0.842855 9.95285 0 7.90234 0ZM10.7668 9.836C10.8387 9.9103 10.8958 9.99853 10.9347 10.0956C10.9736 10.1928 10.9936 10.2969 10.9936 10.402C10.9936 10.5071 10.9736 10.6112 10.9347 10.7084C10.8958 10.8055 10.8387 10.8937 10.7668 10.968C10.6219 11.1168 10.4259 11.2002 10.2218 11.2C10.0171 11.1991 9.82104 11.1142 9.67671 10.964L7.90234 9.132L6.12798 10.968C5.98302 11.1168 5.78708 11.2002 5.58291 11.2C5.37819 11.1991 5.18217 11.1142 5.03784 10.964C4.96596 10.8897 4.90893 10.8015 4.87003 10.7044C4.83112 10.6072 4.81109 10.5031 4.81109 10.398C4.81109 10.2929 4.83112 10.1888 4.87003 10.0916C4.90893 9.99453 4.96596 9.9063 5.03784 9.832L6.80835 8L5.03397 6.164C4.96209 6.0897 4.90507 6.00147 4.86616 5.90435C4.82725 5.80723 4.80723 5.70313 4.80723 5.598C4.80723 5.49287 4.82725 5.38877 4.86616 5.29165C4.90507 5.19453 4.96209 5.1063 5.03397 5.032C5.10578 4.95762 5.19105 4.89861 5.28491 4.85835C5.37877 4.81809 5.47937 4.79737 5.58098 4.79737C5.68258 4.79737 5.78319 4.81809 5.87705 4.85835C5.97091 4.89861 6.05617 4.95762 6.12798 5.032L7.90234 6.868L9.67671 5.032C9.74851 4.95762 9.83378 4.89861 9.92764 4.85835C10.0215 4.81809 10.1221 4.79737 10.2237 4.79737C10.3253 4.79737 10.4259 4.81809 10.5198 4.85835C10.6136 4.89861 10.6989 4.95762 10.7707 5.032C10.8426 5.1063 10.8996 5.19453 10.9385 5.29165C10.9774 5.38877 10.9975 5.49287 10.9975 5.598C10.9975 5.70313 10.9774 5.80723 10.9385 5.90435C10.8996 6.00147 10.8426 6.0897 10.7707 6.164L8.99634 8L10.7668 9.836Z" fill="#DC3545"/>
</svg>
