<svg width="17" height="16" viewBox="0 0 17 16" fill="none" xmlns="http://www.w3.org/2000/svg">
<g clip-path="url(#clip0_2851_21557)">
<path d="M8.14258 0C12.5609 0 16.1426 3.58172 16.1426 8C16.1426 12.4183 12.5609 16 8.14258 16C3.7243 16 0.142578 12.4183 0.142578 8C0.142578 3.58172 3.7243 0 8.14258 0ZM5.95201 5.11372C5.75714 4.97872 5.48772 4.99801 5.31415 5.17157L5.2563 5.24082C5.1213 5.43569 5.14058 5.70511 5.31415 5.87868L7.43547 8L5.31415 10.1213L5.2563 10.1906C5.1213 10.3854 5.14058 10.6549 5.31415 10.8284L5.3834 10.8863C5.57827 11.0213 5.84769 11.002 6.02126 10.8284L8.14258 8.70711L10.2639 10.8284L10.3331 10.8863C10.528 11.0213 10.7974 11.002 10.971 10.8284L11.0289 10.7592C11.1639 10.5643 11.1446 10.2949 10.971 10.1213L8.84968 8L10.971 5.87868L11.0289 5.80943C11.1639 5.61456 11.1446 5.34514 10.971 5.17157L10.9018 5.11372C10.7069 4.97872 10.4375 4.99801 10.2639 5.17157L8.14258 7.29289L6.02126 5.17157L5.95201 5.11372Z" fill="#DC3545"/>
</g>
<defs>
<clipPath id="clip0_2851_21557">
<rect width="16" height="16" fill="white" transform="translate(0.142578)"/>
</clipPath>
</defs>
</svg>
