<svg width="8" height="8" viewBox="0 0 8 8" fill="none" xmlns="http://www.w3.org/2000/svg">
<g clip-path="url(#clip0_2851_24264)">
<path d="M4 6.8C3.8 6.8 3.6 6.72 3.44 6.56L0.24 3.36C-0.08 3.04 -0.08 2.56 0.24 2.24C0.56 1.92 1.04 1.92 1.36 2.24L4 4.88L6.64 2.24C6.96 1.92 7.44 1.92 7.76 2.24C8.08 2.56 8.08 3.04 7.76 3.36L4.56 6.56C4.4 6.72 4.2 6.8 4 6.8Z" fill="white"/>
<path d="M4 6.8C3.8 6.8 3.6 6.72 3.44 6.56L0.24 3.36C-0.08 3.04 -0.08 2.56 0.24 2.24C0.56 1.92 1.04 1.92 1.36 2.24L4 4.88L6.64 2.24C6.96 1.92 7.44 1.92 7.76 2.24C8.08 2.56 8.08 3.04 7.76 3.36L4.56 6.56C4.4 6.72 4.2 6.8 4 6.8Z" fill="#383535"/>
</g>
<defs>
<clipPath id="clip0_2851_24264">
<rect width="8" height="8" fill="white"/>
</clipPath>
</defs>
</svg>
