<svg width="62" height="22" viewBox="0 0 62 22" fill="none" xmlns="http://www.w3.org/2000/svg">
<path d="M5.08122 12.0886C3.32944 12.0886 2.64538 13.1887 2.64538 16.0189C2.64538 18.8492 3.25395 20.1095 4.80235 20.1095C5.73358 20.0878 6.62184 19.7134 7.28749 19.0618V12.671C6.60844 12.3027 5.84908 12.1074 5.07659 12.1025L5.08122 12.0886ZM8.50618 21.9044C8.27662 21.9044 8.14874 21.7195 8.00083 21.4514C7.87304 21.1982 7.77878 20.9294 7.72043 20.6518C6.68666 21.4901 5.40416 21.962 4.0736 21.9937C1.52837 21.9937 0 19.8552 0 16.2423C0 14.0052 0.505348 12.4969 1.52221 11.4477C1.92724 11.0318 2.41353 10.7039 2.95081 10.4841C3.4881 10.2644 4.06486 10.1576 4.6452 10.1704C5.57072 10.1796 6.47879 10.4235 7.28441 10.8791V5.85032C7.28441 5.62075 7.33525 5.53139 7.56482 5.48671L9.39208 5.1416C9.47603 5.12298 9.56186 5.11419 9.64784 5.11541C9.80191 5.11541 9.85275 5.18628 9.85275 5.43587V18.4316C9.75122 19.2022 9.91418 19.9844 10.315 20.6502C10.3905 20.7843 10.5199 20.8968 10.5199 21.0154C10.5199 21.134 10.4937 21.1294 10.3658 21.1695L8.74037 21.8582C8.6699 21.8953 8.59005 21.9108 8.5108 21.9028L8.50618 21.9044Z" fill="#F7F7F7"/>
<path d="M18.3611 12.5165H18.3102C18.0083 12.407 17.6913 12.3441 17.3704 12.33C16.7896 12.33 16.1502 12.6752 15.1333 13.7275V21.3323C15.1333 21.6266 15.1087 21.6513 14.7759 21.6513H12.9486C12.6405 21.6513 12.565 21.6081 12.565 21.3323V14.4177C12.6467 13.4378 12.4725 12.4536 12.0596 11.5612C11.9826 11.4272 11.8301 11.2423 11.8301 11.1083C11.8301 10.9742 11.8547 10.9542 12.0088 10.8772L13.5495 10.2378C13.6256 10.2121 13.705 10.1975 13.7852 10.1946C14.1149 10.1946 14.2197 10.5829 14.3923 10.9234C14.5739 11.2663 14.7032 11.6345 14.7759 12.0157C15.6911 11.0836 16.4707 10.1669 17.9528 10.1669C18.3649 10.1517 18.7745 10.2363 19.1468 10.4134C19.2763 10.4827 19.3271 10.5475 19.3271 10.643C19.3196 10.7068 19.3025 10.7692 19.2763 10.8279L18.6184 12.2915C18.5167 12.478 18.4643 12.5226 18.3626 12.5226L18.3611 12.5165Z" fill="#F7F7F7"/>
<path d="M30.3649 21.1731C30.3649 21.244 30.314 21.3071 30.1861 21.3595L28.5622 21.908C28.4966 21.9314 28.4283 21.9464 28.3589 21.9527C28.1278 21.9527 28.0014 21.7986 27.8797 21.5891C27.714 21.2926 27.5851 20.977 27.4961 20.6492C26.5016 21.544 25.2037 22.0265 23.8662 21.9989C21.0714 21.9989 20.2363 20.5599 20.2363 18.2535V10.969C20.2363 10.7379 20.3118 10.6748 20.5645 10.6239L22.3409 10.2341C22.4162 10.2138 22.4941 10.2049 22.572 10.2079C22.7261 10.2079 22.8262 10.2788 22.8262 10.5022V17.7235C22.8262 19.4814 23.2376 20.0761 24.5025 20.0761C25.4681 20.0385 26.3949 19.6863 27.1417 19.0731V10.969C27.1417 10.7395 27.2172 10.6748 27.4699 10.6239L29.2463 10.2341C29.3304 10.2131 29.4159 10.1982 29.5021 10.1895C29.63 10.1895 29.707 10.2603 29.707 10.5099V18.6833C29.6361 19.485 29.8334 20.2876 30.2678 20.9651C30.3219 21.0208 30.3574 21.0918 30.3695 21.1685L30.3649 21.1731Z" fill="#F7F7F7"/>
<path d="M37.0615 21.9506H35.5408C35.2851 21.9506 35.2604 21.9506 35.1572 21.7026L30.9388 11.0887C30.8955 11.0033 30.8698 10.91 30.8633 10.8145C30.8633 10.7251 30.9388 10.6604 31.1714 10.6281L33.1004 10.3538H33.2298C33.4085 10.3538 33.4855 10.4247 33.558 10.6003L35.7427 16.928C36.0027 17.7147 36.2218 18.5143 36.399 19.3238C36.579 18.5183 36.8075 17.7244 37.0831 16.9465L39.4665 10.6019C39.5436 10.4154 39.6206 10.3554 39.7747 10.3554C39.9287 10.3554 39.9025 10.38 40.0042 10.38L41.6281 10.6543C41.833 10.6989 41.9085 10.7436 41.9085 10.8407C41.8991 10.9357 41.8735 11.0284 41.833 11.1149L37.4652 21.7041C37.3943 21.9044 37.3496 21.9506 37.0615 21.9506Z" fill="#F7F7F7"/>
<path d="M44.5454 18.478C44.535 18.9216 44.7013 19.3511 45.0075 19.672C45.3138 19.993 45.735 20.1793 46.1785 20.1898H46.2709C47.1819 20.1375 48.0409 19.7481 48.6806 19.0974V16.375C47.0829 16.3996 44.5392 16.489 44.5392 18.478H44.5454ZM51.859 21.0341C51.8566 21.0699 51.843 21.1041 51.82 21.1318C51.7971 21.1594 51.766 21.1791 51.7312 21.1881L50.1905 21.8722C50.1114 21.9141 50.0241 21.9383 49.9347 21.9431C49.756 21.9431 49.6266 21.809 49.5002 21.5795C49.3121 21.2563 49.1661 20.9105 49.0658 20.5503C48.6168 20.9976 48.0818 21.3493 47.4932 21.5842C46.9045 21.8191 46.2744 21.9322 45.6408 21.9169C43.4546 21.9169 42.0371 20.6396 42.0371 18.626C42.0371 15.201 45.6916 14.7218 48.6929 14.6956V13.9731C48.6929 12.5772 48.1876 12.0749 46.69 12.0749C45.6835 12.11 44.6927 12.3359 43.7704 12.7405C43.6958 12.7656 43.618 12.7802 43.5393 12.7836C43.4897 12.7854 43.4408 12.7715 43.3995 12.7438C43.3583 12.7161 43.3269 12.6761 43.3097 12.6296L42.8999 11.511C42.8708 11.4463 42.8536 11.3769 42.8491 11.3061C42.8491 11.0118 43.1572 10.9163 43.3529 10.8531C44.515 10.4143 45.7467 10.1888 46.9889 10.1876C49.7837 10.1876 51.1796 11.2167 51.1796 13.6403V18.1083C51.106 19.0483 51.3181 19.9886 51.7882 20.806C51.8248 20.8783 51.8502 20.9557 51.8637 21.0356L51.859 21.0341Z" fill="#F7F7F7"/>
<path d="M57.0087 4.3879L57.2706 4.79773C57.5702 5.2772 57.8025 5.79563 57.9608 6.33842C58.1209 6.90306 58.1865 7.49029 58.1549 8.07633C58.0965 8.87089 57.9869 9.66085 57.8268 10.4413C58.0317 10.3319 58.2227 10.2425 58.4076 10.1332C58.8088 9.89669 59.186 9.62166 59.5339 9.31197C59.8591 9.00222 60.1542 8.66225 60.4151 8.29665C60.7079 7.87151 60.9557 7.41714 61.1547 6.94084C61.3244 6.56216 61.4716 6.17373 61.5953 5.77761C61.6092 5.73447 61.6215 5.68209 61.6338 5.63741C60.256 4.76112 58.6433 4.32677 57.0117 4.39252L57.0087 4.3879ZM51.3435 8.29973C51.3405 8.31913 51.3405 8.33888 51.3435 8.35828C51.4206 8.537 51.4899 8.72188 51.5731 8.89444C51.7743 9.3019 52.0209 9.68539 52.308 10.0376C52.5469 10.3317 52.8119 10.6035 53.0999 10.8496L53.2987 11.0037C53.7158 11.2966 54.1612 11.5469 54.6283 11.7509C54.9446 11.8926 55.2641 12.0226 55.5866 12.1407C55.8418 12.2395 56.102 12.3249 56.3662 12.3964C56.3991 12.3467 56.4294 12.2952 56.4571 12.2424L56.7375 11.6816C56.9332 11.293 57.0981 10.8896 57.2305 10.4752C57.3524 10.0787 57.44 9.67256 57.4924 9.26112C57.531 9.01461 57.5633 8.64485 57.5695 8.48153C57.588 8.20113 57.5695 7.91918 57.5695 7.63723V7.51243C54.9672 8.49078 53.0706 8.70031 51.3297 8.31822L51.3435 8.29973ZM49.2975 6.93929L49.6426 7.12572C49.923 7.26592 50.2111 7.41229 50.4992 7.54017C50.676 7.62047 50.857 7.69094 51.0415 7.75124C51.5973 7.932 52.1781 8.02352 52.7625 8.0224C52.9351 8.0224 53.1076 8.01008 53.2863 7.99775C53.5676 7.97752 53.8475 7.941 54.1245 7.88836L53.9951 7.6588C53.9242 7.50473 53.8549 7.35066 53.784 7.20584C53.6549 6.92807 53.5447 6.64187 53.4543 6.34921C53.3552 6.0427 53.2729 5.73102 53.2078 5.41555C53.1508 5.1413 53.1323 4.85936 53.0999 4.58511C53.0868 4.38504 53.0868 4.18432 53.0999 3.98424C53.0999 3.78703 53.1122 3.58828 53.1307 3.39107C53.1492 3.19386 53.1446 3.17383 53.1569 3.06136C53.1893 2.81485 53.234 2.57604 53.2725 2.33261C53.311 2.08918 53.3418 2.00445 53.3742 1.84729C53.3742 1.80878 53.3865 1.77026 53.3927 1.72558C53.0945 1.88673 52.8064 2.06578 52.5299 2.26174C52.1921 2.49844 51.8737 2.76171 51.5777 3.04904C51.3445 3.2696 51.1229 3.50204 50.9137 3.74543C50.6086 4.11925 50.3471 4.52656 50.1341 4.9595C49.9877 5.24761 49.8537 5.54188 49.7196 5.83616C49.5549 6.19835 49.4099 6.56917 49.2852 6.947L49.2975 6.93929ZM54.9595 0.036977C55.3879 0.17718 55.81 0.323546 56.2183 0.499186C56.7422 0.716582 57.2451 0.981669 57.7205 1.2911C57.982 1.47347 58.226 1.67978 58.4492 1.90738C58.8263 2.2876 59.1549 2.71298 59.4276 3.17383C59.6309 3.51774 59.8041 3.87858 59.9452 4.25232C57.8723 3.6742 55.6557 3.9262 53.7655 4.95488C53.7178 4.61655 53.6961 4.27505 53.7008 3.9334C53.7085 3.68689 53.7147 3.44654 53.7331 3.20465C53.7516 2.96276 53.7778 2.70546 53.8225 2.45587C53.8897 2.09066 53.9929 1.73301 54.1306 1.38817C54.2446 1.1019 54.3742 0.822096 54.5189 0.550029C54.616 0.365145 54.73 0.186424 54.827 0L54.9488 0.0323548L54.9595 0.036977Z" fill="#F8964F"/>
</svg>
