<svg width="11" height="16" viewBox="0 0 11 16" fill="none" xmlns="http://www.w3.org/2000/svg">
<path d="M5.25392 13.9548C4.53211 13.9548 3.9707 13.3934 3.9707 12.6716C3.9707 11.9498 4.53211 11.3884 5.25392 11.3884C5.97572 11.3884 6.5371 11.9498 6.5371 12.6716C6.5371 13.3934 5.97572 13.9548 5.25392 13.9548ZM5.25392 12.1503C4.97321 12.1503 4.77271 12.3508 4.77271 12.6315C4.77271 12.9122 4.97321 13.1127 5.25392 13.1127C5.53462 13.1127 5.7351 12.9122 5.7351 12.6315C5.7351 12.3508 5.53462 12.1503 5.25392 12.1503Z" fill="white"/>
<path d="M5.25392 13.9548C4.53211 13.9548 3.9707 13.3934 3.9707 12.6716C3.9707 11.9498 4.53211 11.3884 5.25392 11.3884C5.97572 11.3884 6.5371 11.9498 6.5371 12.6716C6.5371 13.3934 5.97572 13.9548 5.25392 13.9548ZM5.25392 12.1503C4.97321 12.1503 4.77271 12.3508 4.77271 12.6315C4.77271 12.9122 4.97321 13.1127 5.25392 13.1127C5.53462 13.1127 5.7351 12.9122 5.7351 12.6315C5.7351 12.3508 5.53462 12.1503 5.25392 12.1503Z" fill="#6C6A6A"/>
<path d="M8.26084 2.96741H2.20569C1.96509 2.96741 1.80469 2.80701 1.80469 2.56641C1.80469 2.32581 1.96509 2.16541 2.20569 2.16541H8.26084C8.50145 2.16541 8.66185 2.32581 8.66185 2.56641C8.66185 2.80701 8.50145 2.96741 8.26084 2.96741Z" fill="white"/>
<path d="M8.26084 2.96741H2.20569C1.96509 2.96741 1.80469 2.80701 1.80469 2.56641C1.80469 2.32581 1.96509 2.16541 2.20569 2.16541H8.26084C8.50145 2.16541 8.66185 2.32581 8.66185 2.56641C8.66185 2.80701 8.50145 2.96741 8.26084 2.96741Z" fill="#6C6A6A"/>
<path d="M8.26084 4.97242H2.20569C1.96509 4.97242 1.80469 4.81201 1.80469 4.57141C1.80469 4.33081 1.96509 4.17041 2.20569 4.17041H8.26084C8.50145 4.17041 8.66185 4.33081 8.66185 4.57141C8.66185 4.81201 8.50145 4.97242 8.26084 4.97242Z" fill="white"/>
<path d="M8.26084 4.97242H2.20569C1.96509 4.97242 1.80469 4.81201 1.80469 4.57141C1.80469 4.33081 1.96509 4.17041 2.20569 4.17041H8.26084C8.50145 4.17041 8.66185 4.33081 8.66185 4.57141C8.66185 4.81201 8.50145 4.97242 8.26084 4.97242Z" fill="#6C6A6A"/>
<path d="M8.26084 6.97742H2.20569C1.96509 6.97742 1.80469 6.81702 1.80469 6.57642C1.80469 6.33582 1.96509 6.17542 2.20569 6.17542H8.26084C8.50145 6.17542 8.66185 6.33582 8.66185 6.57642C8.66185 6.81702 8.50145 6.97742 8.26084 6.97742Z" fill="white"/>
<path d="M8.26084 6.97742H2.20569C1.96509 6.97742 1.80469 6.81702 1.80469 6.57642C1.80469 6.33582 1.96509 6.17542 2.20569 6.17542H8.26084C8.50145 6.17542 8.66185 6.33582 8.66185 6.57642C8.66185 6.81702 8.50145 6.97742 8.26084 6.97742Z" fill="#6C6A6A"/>
<path d="M9.10276 16H1.40351C0.641604 16 0 15.3584 0 14.5965V1.40351C0 0.641604 0.641604 0 1.40351 0H9.10276C9.86467 0 10.5063 0.641604 10.5063 1.40351V14.5965C10.5063 15.3985 9.86467 16 9.10276 16ZM1.40351 0.842096C1.08271 0.842096 0.802005 1.1228 0.802005 1.4436V14.6366C0.802005 14.9574 1.08271 15.2381 1.40351 15.2381H9.10276C9.42357 15.2381 9.70427 14.9574 9.70427 14.6366V1.4436C9.70427 1.1228 9.42357 0.842096 9.10276 0.842096H1.40351Z" fill="white"/>
<path d="M9.10276 16H1.40351C0.641604 16 0 15.3584 0 14.5965V1.40351C0 0.641604 0.641604 0 1.40351 0H9.10276C9.86467 0 10.5063 0.641604 10.5063 1.40351V14.5965C10.5063 15.3985 9.86467 16 9.10276 16ZM1.40351 0.842096C1.08271 0.842096 0.802005 1.1228 0.802005 1.4436V14.6366C0.802005 14.9574 1.08271 15.2381 1.40351 15.2381H9.10276C9.42357 15.2381 9.70427 14.9574 9.70427 14.6366V1.4436C9.70427 1.1228 9.42357 0.842096 9.10276 0.842096H1.40351Z" fill="#6C6A6A"/>
</svg>
