<svg width="16" height="17" viewBox="0 0 16 17" fill="none" xmlns="http://www.w3.org/2000/svg">
<path d="M11.9 4.16708V7.96708H8.1V4.16708H11.9Z" stroke="#454242" stroke-width="1.2"/>
<path d="M7.9 8.16708V11.9671H4.1V8.16708H7.9Z" stroke="#454242" stroke-width="1.2"/>
<path d="M8.74041 16.1672H2.80928C1.25812 16.1672 0 14.9051 0 13.3579V7.42676C0 5.8756 1.26203 4.61748 2.80928 4.61748H4.4464V2.97645C4.4464 1.42529 5.70842 0.167175 7.25568 0.167175H13.1868C14.738 0.167175 15.9961 1.4292 15.9961 2.97645V8.90759C15.9961 10.4588 14.7341 11.7169 13.1868 11.7169H11.5497V13.354C11.5497 14.9051 10.2877 16.1633 8.74041 16.1633V16.1672ZM2.80928 5.78964C1.90672 5.78964 1.17216 6.5242 1.17216 7.42676V13.3579C1.17216 14.2605 1.90672 14.995 2.80928 14.995H8.74041C9.64298 14.995 10.3775 14.2605 10.3775 13.3579V11.1347C10.3775 10.8104 10.6393 10.5486 10.9636 10.5486H13.1868C14.0894 10.5486 14.8239 9.81406 14.8239 8.9115V2.97645C14.8239 2.07389 14.0894 1.33934 13.1868 1.33934H7.25568C6.35311 1.33934 5.61856 2.07389 5.61856 2.97645V5.19965C5.61856 5.52395 5.35678 5.78573 5.03248 5.78573H2.80928V5.78964Z" fill="white"/>
<path d="M8.74041 16.1672H2.80928C1.25812 16.1672 0 14.9051 0 13.3579V7.42676C0 5.8756 1.26203 4.61748 2.80928 4.61748H4.4464V2.97645C4.4464 1.42529 5.70842 0.167175 7.25568 0.167175H13.1868C14.738 0.167175 15.9961 1.4292 15.9961 2.97645V8.90759C15.9961 10.4588 14.7341 11.7169 13.1868 11.7169H11.5497V13.354C11.5497 14.9051 10.2877 16.1633 8.74041 16.1633V16.1672ZM2.80928 5.78964C1.90672 5.78964 1.17216 6.5242 1.17216 7.42676V13.3579C1.17216 14.2605 1.90672 14.995 2.80928 14.995H8.74041C9.64298 14.995 10.3775 14.2605 10.3775 13.3579V11.1347C10.3775 10.8104 10.6393 10.5486 10.9636 10.5486H13.1868C14.0894 10.5486 14.8239 9.81406 14.8239 8.9115V2.97645C14.8239 2.07389 14.0894 1.33934 13.1868 1.33934H7.25568C6.35311 1.33934 5.61856 2.07389 5.61856 2.97645V5.19965C5.61856 5.52395 5.35678 5.78573 5.03248 5.78573H2.80928V5.78964Z" fill="#454242"/>
</svg>
