<svg width="61" height="58" viewBox="0 0 61 58" fill="none" xmlns="http://www.w3.org/2000/svg">
<path d="M40.7651 37.5662C40.9107 37.5257 45.1905 37.5662 46.5007 37.4346C50.6543 37.0246 53.2989 31.942 52.77 27.5379C51.9888 21.0278 45.2584 20.2887 43.8512 20.2026C43.7445 20.1976 43.696 20.071 43.7639 19.985C44.2346 19.3724 44.5597 18.6283 44.7829 17.8942C45.3895 15.9098 45.1129 13.7482 44.1181 11.941C40.6535 5.65368 34.0299 9.33901 34.0299 9.33901C28.8233 1.30012 19.8026 4.00338 19.8026 4.00338C9.23884 7.37991 9.74835 18.608 9.84054 19.8938C9.8454 19.9647 9.79687 20.0204 9.72894 20.0305C4.76975 20.7139 2.62983 23.3767 1.89711 26.4444C0.844135 30.8587 2.31442 36.4019 8.33629 37.5662H40.7651Z" fill="#F7F4F2"/>
<ellipse cx="29.9269" cy="36.8741" rx="15.7823" ry="15.2105" fill="white"/>
<path d="M46.141 37.9852L46.1411 37.9856C46.2029 38.2108 46.4086 38.3599 46.6386 38.3599C46.6524 38.3599 46.667 38.3586 46.6791 38.3576L46.68 38.3575C46.6933 38.3563 46.7037 38.3554 46.7127 38.3554V38.3556L46.716 38.3553C46.727 38.3546 46.7374 38.3539 46.7478 38.3531C46.8639 38.345 46.972 38.3374 47.6217 38.3374L47.6221 38.3374C47.7129 38.3367 47.8054 38.336 47.8995 38.3353C49.5564 38.3223 51.6829 38.3056 52.6189 38.2202L52.6144 38.1704L52.6189 38.2202C54.6483 38.0343 56.4755 37.0185 57.9095 35.2811C59.7477 33.0604 60.6595 29.9093 60.2918 27.0554C59.8586 23.6873 57.922 21.6823 55.7916 20.491C53.7101 19.327 51.4423 18.9388 50.2054 18.8103C50.5543 18.2761 50.8506 17.6473 51.0826 16.9364C51.8098 14.721 51.5158 12.2485 50.2769 10.1572C48.4491 7.06168 45.8793 6.09474 43.5622 5.99171C41.282 5.89032 39.2473 6.62529 38.4036 6.98383C35.3271 2.79687 31.1899 1.39642 27.8069 1.04748C24.4162 0.697761 21.78 1.40377 21.7192 1.42031L21.7192 1.4203L21.7181 1.42064C15.7712 3.18994 12.7804 6.91645 11.2928 10.4937C9.82494 14.0237 9.82117 17.4071 9.87943 18.6198C7.39086 18.9836 5.38 19.7659 3.85966 20.9629C2.32955 22.1675 1.29915 23.7897 0.777923 25.8205L0.777908 25.8206C-0.00313875 28.8795 0.428429 31.9686 1.97495 34.3001C3.38702 36.4288 5.67401 37.8305 8.59359 38.3547L8.59346 38.3554L8.60234 38.3554L13.5116 38.3644H13.5117C13.7927 38.3644 14.0248 38.1408 14.0248 37.8643C14.0248 37.5878 13.7927 37.3642 13.5117 37.3642H8.73667C6.082 36.875 4.10045 35.6618 2.84101 33.7588L2.79932 33.7864L2.841 33.7587C1.4513 31.6613 1.06299 28.8586 1.77791 26.0659C2.25231 24.2149 3.2096 22.744 4.63982 21.6592C6.07072 20.5739 7.97789 19.8728 10.3547 19.5675C10.6993 19.5238 10.9515 19.2271 10.9263 18.8885L10.9263 18.8883C10.8733 18.2277 10.7046 14.9739 12.0198 11.4486C13.334 7.92566 16.1301 4.13099 22.0104 2.38076C22.2123 2.32281 24.7368 1.65106 27.9228 2.01897C31.1087 2.38687 34.9542 3.79385 37.8039 7.89314L38.0352 8.23047L38.0602 8.26687L38.0994 8.2466L38.4653 8.05757C38.6113 7.98217 40.4215 7.06893 42.6559 6.95693C44.887 6.84511 47.5393 7.53155 49.3849 10.6537L49.428 10.6283L49.3849 10.6537C50.4803 12.5055 50.742 14.6871 50.103 16.6306L50.1029 16.6307C49.8265 17.4769 49.4633 18.1731 49.0236 18.7073C48.8633 18.8974 48.828 19.1518 48.9285 19.3763L48.9286 19.3767C49.0294 19.597 49.2455 19.7378 49.4898 19.7524L49.4899 19.7524C50.2332 19.795 52.4695 20.0026 54.6249 21.0254C56.7788 22.0474 58.8477 23.8807 59.271 27.1761L59.271 27.1762C59.6073 29.7685 58.7777 32.6309 57.1099 34.6502L57.1099 34.6503C56.2344 35.7116 54.7264 37.0195 52.5218 37.2204L52.5216 37.2204C51.5755 37.3101 49.195 37.3237 47.6142 37.3327L47.6122 37.3327C46.8405 37.3372 46.5904 37.3406 46.5215 37.3464C46.5172 37.3468 46.5128 37.3472 46.5086 37.3478C46.5046 37.3483 46.5007 37.349 46.4973 37.3498C46.4945 37.3504 46.4869 37.3522 46.4791 37.357C46.4751 37.3595 46.467 37.3651 46.4611 37.3756C46.4581 37.3808 46.4562 37.3864 46.4552 37.3922C46.2172 37.4819 46.0736 37.7324 46.141 37.9852Z" fill="#839EFB" stroke="#839EFB" stroke-width="0.1"/>
<path d="M31.3593 53.0883C23.2805 53.6004 15.6029 48.1345 14.383 39.643C13.4884 33.4403 16.6656 27.2584 22.3316 24.2067C31.5002 19.2686 42.5123 23.7573 45.5812 32.8655C46.9746 36.9989 46.465 41.2838 44.5185 44.8476" stroke="#969696" stroke-width="1.5" stroke-miterlimit="10" stroke-linecap="round"/>
<path d="M27.5459 57L32.4311 53.1645L27.7628 48.4719" stroke="#969696" stroke-width="1.5" stroke-miterlimit="10" stroke-linecap="round"/>
<g filter="url(#filter0_d_2124_238040)">
<path d="M36.8668 29.0001H29.5341C28.3012 29.0001 27.3018 29.9633 27.3018 31.1515V38.2185C27.3018 39.4068 28.3012 40.37 29.5341 40.37H36.8668C38.0997 40.37 39.0991 39.4068 39.0991 38.2185V31.1515C39.0991 29.9633 38.0997 29.0001 36.8668 29.0001Z" fill="#FFAC70"/>
<path d="M31.8023 33.7974H24.4696C23.2368 33.7974 22.2373 34.7606 22.2373 35.9488V43.0158C22.2373 44.2041 23.2368 45.1673 24.4696 45.1673H31.8023C33.0352 45.1673 34.0347 44.2041 34.0347 43.0158V35.9488C34.0347 34.7606 33.0352 33.7974 31.8023 33.7974Z" fill="#FFAC70"/>
<path d="M30.5208 37.0417H25.751C25.6695 37.0417 25.6035 37.1054 25.6035 37.1839V41.7809C25.6035 41.8594 25.6695 41.923 25.751 41.923H30.5208C30.6022 41.923 30.6683 41.8594 30.6683 41.7809V37.1839C30.6683 37.1054 30.6022 37.0417 30.5208 37.0417Z" stroke="white" stroke-miterlimit="10"/>
<path d="M35.5852 32.2448H30.8154C30.734 32.2448 30.668 32.3084 30.668 32.3869V36.9839C30.668 37.0624 30.734 37.126 30.8154 37.126H35.5852C35.6667 37.126 35.7327 37.0624 35.7327 36.9839V32.3869C35.7327 32.3084 35.6667 32.2448 35.5852 32.2448Z" stroke="white" stroke-miterlimit="10"/>
</g>
<defs>
<filter id="filter0_d_2124_238040" x="18.2373" y="29.0001" width="24.8623" height="24.1672" filterUnits="userSpaceOnUse" color-interpolation-filters="sRGB">
<feFlood flood-opacity="0" result="BackgroundImageFix"/>
<feColorMatrix in="SourceAlpha" type="matrix" values="0 0 0 0 0 0 0 0 0 0 0 0 0 0 0 0 0 0 127 0" result="hardAlpha"/>
<feOffset dy="4"/>
<feGaussianBlur stdDeviation="2"/>
<feComposite in2="hardAlpha" operator="out"/>
<feColorMatrix type="matrix" values="0 0 0 0 1 0 0 0 0 0.765 0 0 0 0 0.4125 0 0 0 0.25 0"/>
<feBlend mode="normal" in2="BackgroundImageFix" result="effect1_dropShadow_2124_238040"/>
<feBlend mode="normal" in="SourceGraphic" in2="effect1_dropShadow_2124_238040" result="shape"/>
</filter>
</defs>
</svg>
