<svg width="16" height="17" viewBox="0 0 16 17" fill="none" xmlns="http://www.w3.org/2000/svg">
<path d="M7.87235 0.851263C7.95107 0.805813 8.04806 0.805813 8.12679 0.851263L8.45179 0.288347L8.12679 0.851263L14.2717 4.39904C14.3504 4.4445 14.3989 4.52849 14.3989 4.61939V11.715C14.3989 11.8059 14.3504 11.8899 14.2717 11.9353L8.12679 15.4831L8.45179 16.046L8.12678 15.4831C8.04806 15.5285 7.95108 15.5285 7.87235 15.4831L7.54735 16.046L7.87235 15.4831L1.72741 11.9353C1.64869 11.8899 1.6002 11.8059 1.6002 11.715V4.61939C1.6002 4.52849 1.64869 4.4445 1.72741 4.39905L7.87235 0.851263L7.5521 0.296573L7.87235 0.851263Z" stroke="white" stroke-width="1.3"/>
<path d="M7.87235 0.851263C7.95107 0.805813 8.04806 0.805813 8.12679 0.851263L8.45179 0.288347L8.12679 0.851263L14.2717 4.39904C14.3504 4.4445 14.3989 4.52849 14.3989 4.61939V11.715C14.3989 11.8059 14.3504 11.8899 14.2717 11.9353L8.12679 15.4831L8.45179 16.046L8.12678 15.4831C8.04806 15.5285 7.95108 15.5285 7.87235 15.4831L7.54735 16.046L7.87235 15.4831L1.72741 11.9353C1.64869 11.8899 1.6002 11.8059 1.6002 11.715V4.61939C1.6002 4.52849 1.64869 4.4445 1.72741 4.39905L7.87235 0.851263L7.5521 0.296573L7.87235 0.851263Z" stroke="#454242" stroke-width="1.3"/>
<circle cx="7.99846" cy="8.16722" r="2.06331" stroke="white" stroke-width="1.3"/>
<circle cx="7.99846" cy="8.16722" r="2.06331" stroke="#454242" stroke-width="1.3"/>
</svg>
