<svg width="16" height="17" viewBox="0 0 16 17" fill="none" xmlns="http://www.w3.org/2000/svg">
<path d="M7.87235 1.59635C7.95107 1.5509 8.04806 1.5509 8.12679 1.59635L8.45179 1.03343L8.12679 1.59635L14.2717 5.14413C14.3504 5.18958 14.3989 5.27358 14.3989 5.36448V12.46C14.3989 12.5509 14.3504 12.6349 14.2717 12.6804L8.12679 16.2282L8.45179 16.7911L8.12678 16.2282C8.04806 16.2736 7.95108 16.2736 7.87235 16.2282L7.54735 16.7911L7.87235 16.2282L1.72741 12.6804C1.64869 12.6349 1.6002 12.5509 1.6002 12.46V5.36448C1.6002 5.27358 1.64869 5.18958 1.72741 5.14413L7.87235 1.59635L7.5521 1.04166L7.87235 1.59635Z" stroke="white" stroke-width="1.3"/>
<path d="M7.87235 1.59635C7.95107 1.5509 8.04806 1.5509 8.12679 1.59635L8.45179 1.03343L8.12679 1.59635L14.2717 5.14413C14.3504 5.18958 14.3989 5.27358 14.3989 5.36448V12.46C14.3989 12.5509 14.3504 12.6349 14.2717 12.6804L8.12679 16.2282L8.45179 16.7911L8.12678 16.2282C8.04806 16.2736 7.95108 16.2736 7.87235 16.2282L7.54735 16.7911L7.87235 16.2282L1.72741 12.6804C1.64869 12.6349 1.6002 12.5509 1.6002 12.46V5.36448C1.6002 5.27358 1.64869 5.18958 1.72741 5.14413L7.87235 1.59635L7.5521 1.04166L7.87235 1.59635Z" stroke="#454242" stroke-width="1.3"/>
<path d="M9.93489 8.45528C10.1664 8.59033 10.1664 8.92486 9.93488 9.05992L6.91952 10.8189C6.68619 10.955 6.39316 10.7867 6.39316 10.5166L6.39316 6.99864C6.39316 6.72851 6.68619 6.5602 6.91952 6.69631L9.93489 8.45528Z" stroke="white" stroke-width="1.3"/>
<path d="M9.93489 8.45528C10.1664 8.59033 10.1664 8.92486 9.93488 9.05992L6.91952 10.8189C6.68619 10.955 6.39316 10.7867 6.39316 10.5166L6.39316 6.99864C6.39316 6.72851 6.68619 6.5602 6.91952 6.69631L9.93489 8.45528Z" stroke="#454242" stroke-width="1.3"/>
</svg>
