<svg width="17" height="16" viewBox="0 0 17 16" fill="none" xmlns="http://www.w3.org/2000/svg">
<g clip-path="url(#clip0_2179_236959)">
<path d="M16.1031 6.88998H7.4631C7.30397 6.88998 7.15136 6.95319 7.03883 7.06571C6.92631 7.17823 6.8631 7.33085 6.8631 7.48998V11C6.85813 11.0465 6.85813 11.0934 6.8631 11.14C6.85814 11.1832 6.85814 11.2268 6.8631 11.27V14.76C6.86308 14.92 6.92597 15.0737 7.03821 15.1878C7.15046 15.3019 7.30305 15.3674 7.4631 15.37H16.1031C16.2649 15.37 16.42 15.3057 16.5344 15.1913C16.6488 15.0769 16.7131 14.9218 16.7131 14.76V7.48998C16.7131 7.41033 16.6973 7.33149 16.6665 7.25803C16.6357 7.18458 16.5906 7.11798 16.5338 7.06214C16.4771 7.00629 16.4097 6.9623 16.3358 6.93275C16.2618 6.90319 16.1827 6.88865 16.1031 6.88998ZM15.4931 14.13H8.0731V11.86H15.4931V14.13ZM15.4931 10.37H8.0731V8.09998H15.4931V10.37Z" fill="#6C757D"/>
<path d="M14.333 13.58C14.4486 13.5741 14.56 13.5343 14.6532 13.4655C14.7463 13.3968 14.8172 13.3021 14.857 13.1934C14.8968 13.0846 14.9037 12.9665 14.8768 12.8539C14.8499 12.7413 14.7905 12.639 14.706 12.5599C14.6214 12.4808 14.5154 12.4283 14.4012 12.409C14.287 12.3897 14.1697 12.4044 14.0638 12.4514C13.958 12.4983 13.8682 12.5753 13.8058 12.6729C13.7435 12.7704 13.7112 12.8842 13.713 13C13.7128 13.0796 13.729 13.1585 13.7606 13.2316C13.7922 13.3047 13.8386 13.3705 13.8967 13.4249C13.9549 13.4793 14.0237 13.5212 14.0987 13.5479C14.1738 13.5746 14.2535 13.5855 14.333 13.58Z" fill="#6C757D"/>
<path d="M14.3329 9.82C14.4456 9.81221 14.5535 9.77169 14.6435 9.70341C14.7335 9.63513 14.8016 9.54206 14.8394 9.43564C14.8772 9.32921 14.8832 9.21405 14.8565 9.1043C14.8298 8.99455 14.7716 8.89498 14.6891 8.81782C14.6066 8.74066 14.5034 8.68926 14.3921 8.66993C14.2808 8.6506 14.1663 8.66419 14.0627 8.70902C13.959 8.75386 13.8707 8.82799 13.8085 8.92231C13.7464 9.01663 13.7132 9.12705 13.7129 9.24C13.7127 9.31965 13.7289 9.39849 13.7605 9.4716C13.7922 9.54471 13.8385 9.61052 13.8967 9.66494C13.9548 9.71935 14.0236 9.7612 14.0986 9.78788C14.1737 9.81456 14.2534 9.82549 14.3329 9.82Z" fill="#6C757D"/>
<path d="M5.40266 12H3.94266C3.41223 12.0199 2.89562 11.8282 2.50648 11.4672C2.11734 11.1062 1.88755 10.6054 1.86766 10.075C1.84777 9.54455 2.0394 9.02794 2.40041 8.6388C2.76142 8.24966 3.26223 8.01987 3.79266 7.99998C3.90824 7.99449 4.01976 7.9557 4.11379 7.88828C4.20783 7.82086 4.28036 7.72768 4.32266 7.61998C4.36004 7.51537 4.36862 7.40263 4.34751 7.29356C4.3264 7.18449 4.27637 7.0831 4.20266 6.99998C3.95469 6.71008 3.7948 6.35532 3.74186 5.97752C3.68892 5.59973 3.74513 5.21468 3.90385 4.86779C4.06258 4.5209 4.31721 4.22663 4.6377 4.01972C4.9582 3.8128 5.33118 3.70186 5.71266 3.69998C6.14729 3.69837 6.56988 3.84275 6.91266 4.10998C6.98136 4.16321 7.06049 4.2014 7.1449 4.22207C7.22932 4.24275 7.31713 4.24544 7.40266 4.22998C7.55305 4.20199 7.68812 4.12024 7.78266 3.99998C8.14922 3.39104 8.66674 2.88701 9.28514 2.53664C9.90354 2.18627 10.6019 2.00142 11.3127 1.99998C13.3827 1.99998 15.4727 2.99998 15.4727 4.99998C15.4727 5.16442 15.538 5.32212 15.6543 5.43839C15.7705 5.55466 15.9282 5.61998 16.0927 5.61998C16.2571 5.61998 16.4148 5.55466 16.5311 5.43839C16.6473 5.32212 16.7127 5.16442 16.7127 4.99998C16.7127 2.49998 14.4427 0.719982 11.3127 0.719982C10.4972 0.718279 9.69218 0.903 8.95905 1.26003C8.22593 1.61706 7.58412 2.13695 7.08266 2.77998C6.59033 2.54319 6.046 2.43514 5.50056 2.46594C4.95512 2.49674 4.4264 2.66539 3.96387 2.95609C3.50133 3.2468 3.12008 3.65008 2.85579 4.1282C2.5915 4.60633 2.4528 5.14367 2.45266 5.68998C2.44278 6.15655 2.53137 6.61996 2.71266 7.04998C2.015 7.32836 1.43617 7.84118 1.07576 8.50023C0.715362 9.15927 0.595922 9.92331 0.737994 10.6609C0.880066 11.3985 1.27477 12.0635 1.85419 12.5415C2.4336 13.0195 3.16151 13.2807 3.91266 13.28H5.40266C5.56709 13.28 5.72479 13.2147 5.84106 13.0984C5.95734 12.9821 6.02266 12.8244 6.02266 12.66C6.02814 12.5753 6.01616 12.4903 5.98746 12.4104C5.95876 12.3305 5.91396 12.2574 5.85584 12.1955C5.79771 12.1336 5.72749 12.0843 5.64954 12.0507C5.57159 12.0171 5.48756 11.9998 5.40266 12Z" fill="#6C757D"/>
</g>
<defs>
<clipPath id="clip0_2179_236959">
<rect width="16" height="16" fill="white" transform="translate(0.712891)"/>
</clipPath>
</defs>
</svg>
