<svg width="11" height="16" viewBox="0 0 11 16" fill="none" xmlns="http://www.w3.org/2000/svg">
<path d="M9.10276 16H1.40351C0.641604 16 0 15.3584 0 14.5965V1.40351C0 0.641604 0.641604 0 1.40351 0H9.10276C9.86467 0 10.5063 0.641604 10.5063 1.40351V14.5965C10.5063 15.3985 9.86467 16 9.10276 16ZM1.40351 0.842096C1.08271 0.842096 0.802005 1.1228 0.802005 1.4436V14.6366C0.802005 14.9574 1.08271 15.2381 1.40351 15.2381H9.10276C9.42357 15.2381 9.70427 14.9574 9.70427 14.6366V1.4436C9.70427 1.1228 9.42357 0.842096 9.10276 0.842096H1.40351Z" fill="white"/>
<path d="M9.10276 16H1.40351C0.641604 16 0 15.3584 0 14.5965V1.40351C0 0.641604 0.641604 0 1.40351 0H9.10276C9.86467 0 10.5063 0.641604 10.5063 1.40351V14.5965C10.5063 15.3985 9.86467 16 9.10276 16ZM1.40351 0.842096C1.08271 0.842096 0.802005 1.1228 0.802005 1.4436V14.6366C0.802005 14.9574 1.08271 15.2381 1.40351 15.2381H9.10276C9.42357 15.2381 9.70427 14.9574 9.70427 14.6366V1.4436C9.70427 1.1228 9.42357 0.842096 9.10276 0.842096H1.40351Z" fill="#6C6A6A"/>
<path d="M5.25294 13.9548C4.53114 13.9548 3.96973 13.3934 3.96973 12.6716C3.96973 11.9498 4.53114 11.3884 5.25294 11.3884C5.97474 11.3884 6.53613 11.9498 6.53613 12.6716C6.53613 13.3934 5.97474 13.9548 5.25294 13.9548ZM5.25294 12.1503C4.97224 12.1503 4.77173 12.3508 4.77173 12.6315C4.77173 12.9122 4.97224 13.1127 5.25294 13.1127C5.53364 13.1127 5.73412 12.9122 5.73412 12.6315C5.73412 12.3508 5.53364 12.1503 5.25294 12.1503Z" fill="white"/>
<path d="M5.25294 13.9548C4.53114 13.9548 3.96973 13.3934 3.96973 12.6716C3.96973 11.9498 4.53114 11.3884 5.25294 11.3884C5.97474 11.3884 6.53613 11.9498 6.53613 12.6716C6.53613 13.3934 5.97474 13.9548 5.25294 13.9548ZM5.25294 12.1503C4.97224 12.1503 4.77173 12.3508 4.77173 12.6315C4.77173 12.9122 4.97224 13.1127 5.25294 13.1127C5.53364 13.1127 5.73412 12.9122 5.73412 12.6315C5.73412 12.3508 5.53364 12.1503 5.25294 12.1503Z" fill="#6C6A6A"/>
<path d="M7.98018 2.56641V4.13032H6.41626V2.56641H7.98018ZM8.78219 1.7644H5.61426V4.93232H8.78219V1.7644Z" fill="white"/>
<path d="M7.98018 2.56641V4.13032H6.41626V2.56641H7.98018ZM8.78219 1.7644H5.61426V4.93232H8.78219V1.7644Z" fill="#6C6A6A"/>
<path d="M4.09053 6.45618V8.0201H2.52661V6.45618H4.09053ZM4.89254 5.65417H1.72461V8.8221H4.89254V5.65417Z" fill="white"/>
<path d="M4.09053 6.45618V8.0201H2.52661V6.45618H4.09053ZM4.89254 5.65417H1.72461V8.8221H4.89254V5.65417Z" fill="#6C6A6A"/>
<path d="M4.09053 2.56641V4.13032H2.52661V2.56641H4.09053ZM4.89254 1.7644H1.72461V4.93232H4.89254V1.7644Z" fill="white"/>
<path d="M4.09053 2.56641V4.13032H2.52661V2.56641H4.09053ZM4.89254 1.7644H1.72461V4.93232H4.89254V1.7644Z" fill="#6C6A6A"/>
<path d="M4.09053 6.45618V8.0201H2.52661V6.45618H4.09053ZM4.89254 5.65417H1.72461V8.8221H4.89254V5.65417Z" fill="white"/>
<path d="M4.09053 6.45618V8.0201H2.52661V6.45618H4.09053ZM4.89254 5.65417H1.72461V8.8221H4.89254V5.65417Z" fill="#6C6A6A"/>
<path d="M7.98018 6.45618V8.0201H6.41626V6.45618H7.98018ZM8.78219 5.65417H5.61426V8.8221H8.78219V5.65417Z" fill="white"/>
<path d="M7.98018 6.45618V8.0201H6.41626V6.45618H7.98018ZM8.78219 5.65417H5.61426V8.8221H8.78219V5.65417Z" fill="#6C6A6A"/>
</svg>
