<svg width="15" height="16" viewBox="0 0 15 16" fill="none" xmlns="http://www.w3.org/2000/svg">
<path d="M2.02985 9.54911H1.19403V2.10632H8.67662V2.94214H9.87065V1.70831C9.87065 1.2705 9.51244 0.912292 9.07463 0.912292H0.79602C0.358209 0.912292 0 1.2705 0 1.70831V9.94712C0 10.3849 0.358209 10.7431 0.79602 10.7431H2.02985V9.54911Z" fill="white"/>
<path d="M2.02985 9.54911H1.19403V2.10632H8.67662V2.94214H9.87065V1.70831C9.87065 1.2705 9.51244 0.912292 9.07463 0.912292H0.79602C0.358209 0.912292 0 1.2705 0 1.70831V9.94712C0 10.3849 0.358209 10.7431 0.79602 10.7431H2.02985V9.54911Z" fill="#454242"/>
<path d="M13.1294 12.0914C12.811 12.0914 12.5323 12.171 12.2935 12.2904L11.0199 11.0566C11.1393 10.8178 11.2189 10.5392 11.2189 10.2208C11.2189 9.90236 11.1393 9.62375 10.9801 9.34515L12.2139 8.11131C12.4925 8.23072 12.7712 8.35012 13.0896 8.35012C14.1244 8.35012 14.9602 7.5143 14.9602 6.47947C14.9602 5.44465 14.1244 4.60883 13.0896 4.60883C12.0547 4.60883 11.2189 5.44465 11.2189 6.47947C11.2189 6.75808 11.2985 7.03669 11.3781 7.27549L10.1443 8.50932C9.90548 8.38992 9.62688 8.35012 9.34827 8.35012C9.02986 8.35012 8.75125 8.42972 8.51245 8.54913L7.27862 7.31529C7.39802 7.07649 7.47762 6.79788 7.47762 6.47947C7.47762 5.44465 6.6418 4.60883 5.60698 4.60883C4.57215 4.60883 3.73633 5.44465 3.73633 6.47947C3.73633 7.5143 4.57215 8.35012 5.60698 8.35012C5.88558 8.35012 6.16419 8.27052 6.4428 8.15112L7.67663 9.38495C7.55722 9.62375 7.47762 9.90236 7.47762 10.2208C7.47762 10.4994 7.55722 10.778 7.63683 11.0168L6.403 12.2506C6.16419 12.1312 5.88558 12.0914 5.60698 12.0914C4.57215 12.0914 3.73633 12.9272 3.73633 13.9621C3.73633 14.9969 4.57215 15.8327 5.60698 15.8327C6.6418 15.8327 7.47762 14.9969 7.47762 13.9621C7.47762 13.6437 7.39802 13.365 7.23882 13.0864L8.47265 11.8526C8.75125 11.972 9.02986 12.0914 9.34827 12.0914C9.62688 12.0914 9.90548 12.0118 10.1841 11.8924L11.4179 13.1262C11.2985 13.365 11.2189 13.6437 11.2189 13.9621C11.2189 14.9969 12.0547 15.8327 13.0896 15.8327C14.1244 15.8327 14.9602 14.9969 14.9602 13.9621C15 12.9272 14.1642 12.0914 13.1294 12.0914ZM13.1294 5.80286C13.4876 5.80286 13.806 6.12126 13.806 6.47947C13.806 6.83768 13.4876 7.15609 13.1294 7.15609C12.7712 7.15609 12.4527 6.83768 12.4527 6.47947C12.4527 6.12126 12.7314 5.80286 13.1294 5.80286ZM4.93036 6.47947C4.93036 6.12126 5.24877 5.80286 5.60698 5.80286C5.96518 5.80286 6.28359 6.12126 6.28359 6.47947C6.28359 6.83768 5.96518 7.15609 5.60698 7.15609C5.24877 7.15609 4.93036 6.83768 4.93036 6.47947ZM5.60698 14.6387C5.24877 14.6387 4.93036 14.3203 4.93036 13.9621C4.93036 13.6039 5.24877 13.2854 5.60698 13.2854C5.96518 13.2854 6.28359 13.6039 6.28359 13.9621C6.28359 14.3203 6.00499 14.6387 5.60698 14.6387ZM8.71145 10.2208C8.71145 9.86256 9.02986 9.54415 9.38807 9.54415C9.74628 9.54415 10.0647 9.86256 10.0647 10.2208C10.0647 10.579 9.74628 10.8974 9.38807 10.8974C9.02986 10.8974 8.71145 10.579 8.71145 10.2208ZM13.1294 14.6387C12.7712 14.6387 12.4527 14.3203 12.4527 13.9621C12.4527 13.6039 12.7712 13.2854 13.1294 13.2854C13.4876 13.2854 13.806 13.6039 13.806 13.9621C13.806 14.3203 13.4876 14.6387 13.1294 14.6387Z" fill="white"/>
<path d="M13.1294 12.0914C12.811 12.0914 12.5323 12.171 12.2935 12.2904L11.0199 11.0566C11.1393 10.8178 11.2189 10.5392 11.2189 10.2208C11.2189 9.90236 11.1393 9.62375 10.9801 9.34515L12.2139 8.11131C12.4925 8.23072 12.7712 8.35012 13.0896 8.35012C14.1244 8.35012 14.9602 7.5143 14.9602 6.47947C14.9602 5.44465 14.1244 4.60883 13.0896 4.60883C12.0547 4.60883 11.2189 5.44465 11.2189 6.47947C11.2189 6.75808 11.2985 7.03669 11.3781 7.27549L10.1443 8.50932C9.90548 8.38992 9.62688 8.35012 9.34827 8.35012C9.02986 8.35012 8.75125 8.42972 8.51245 8.54913L7.27862 7.31529C7.39802 7.07649 7.47762 6.79788 7.47762 6.47947C7.47762 5.44465 6.6418 4.60883 5.60698 4.60883C4.57215 4.60883 3.73633 5.44465 3.73633 6.47947C3.73633 7.5143 4.57215 8.35012 5.60698 8.35012C5.88558 8.35012 6.16419 8.27052 6.4428 8.15112L7.67663 9.38495C7.55722 9.62375 7.47762 9.90236 7.47762 10.2208C7.47762 10.4994 7.55722 10.778 7.63683 11.0168L6.403 12.2506C6.16419 12.1312 5.88558 12.0914 5.60698 12.0914C4.57215 12.0914 3.73633 12.9272 3.73633 13.9621C3.73633 14.9969 4.57215 15.8327 5.60698 15.8327C6.6418 15.8327 7.47762 14.9969 7.47762 13.9621C7.47762 13.6437 7.39802 13.365 7.23882 13.0864L8.47265 11.8526C8.75125 11.972 9.02986 12.0914 9.34827 12.0914C9.62688 12.0914 9.90548 12.0118 10.1841 11.8924L11.4179 13.1262C11.2985 13.365 11.2189 13.6437 11.2189 13.9621C11.2189 14.9969 12.0547 15.8327 13.0896 15.8327C14.1244 15.8327 14.9602 14.9969 14.9602 13.9621C15 12.9272 14.1642 12.0914 13.1294 12.0914ZM13.1294 5.80286C13.4876 5.80286 13.806 6.12126 13.806 6.47947C13.806 6.83768 13.4876 7.15609 13.1294 7.15609C12.7712 7.15609 12.4527 6.83768 12.4527 6.47947C12.4527 6.12126 12.7314 5.80286 13.1294 5.80286ZM4.93036 6.47947C4.93036 6.12126 5.24877 5.80286 5.60698 5.80286C5.96518 5.80286 6.28359 6.12126 6.28359 6.47947C6.28359 6.83768 5.96518 7.15609 5.60698 7.15609C5.24877 7.15609 4.93036 6.83768 4.93036 6.47947ZM5.60698 14.6387C5.24877 14.6387 4.93036 14.3203 4.93036 13.9621C4.93036 13.6039 5.24877 13.2854 5.60698 13.2854C5.96518 13.2854 6.28359 13.6039 6.28359 13.9621C6.28359 14.3203 6.00499 14.6387 5.60698 14.6387ZM8.71145 10.2208C8.71145 9.86256 9.02986 9.54415 9.38807 9.54415C9.74628 9.54415 10.0647 9.86256 10.0647 10.2208C10.0647 10.579 9.74628 10.8974 9.38807 10.8974C9.02986 10.8974 8.71145 10.579 8.71145 10.2208ZM13.1294 14.6387C12.7712 14.6387 12.4527 14.3203 12.4527 13.9621C12.4527 13.6039 12.7712 13.2854 13.1294 13.2854C13.4876 13.2854 13.806 13.6039 13.806 13.9621C13.806 14.3203 13.4876 14.6387 13.1294 14.6387Z" fill="#454242"/>
</svg>
