<svg width="16" height="16" viewBox="0 0 16 16" fill="none" xmlns="http://www.w3.org/2000/svg">
<path d="M8.00065 6.66699C8.36884 6.66699 8.66732 6.96547 8.66732 7.33366V11.3337C8.66732 11.7018 8.36884 12.0003 8.00065 12.0003C7.63246 12.0003 7.33398 11.7018 7.33398 11.3337V7.33366C7.33398 6.96547 7.63246 6.66699 8.00065 6.66699Z" fill="#878686"/>
<path d="M8.00066 5.6654C8.55223 5.6654 8.99938 5.21825 8.99938 4.66668C8.99938 4.1151 8.55223 3.66797 8.00066 3.66797C7.44909 3.66797 7.00195 4.1151 7.00195 4.66668C7.00195 5.21825 7.44909 5.6654 8.00066 5.6654Z" fill="#878686"/>
<path d="M0 8C0 3.58172 3.58172 0 8 0C12.4183 0 16 3.58172 16 8C16 12.4183 12.4183 16 8 16C3.58172 16 0 12.4183 0 8ZM8 1.33333C4.31811 1.33333 1.33333 4.31811 1.33333 8C1.33333 11.6819 4.31811 14.6667 8 14.6667C11.6819 14.6667 14.6667 11.6819 14.6667 8C14.6667 4.31811 11.6819 1.33333 8 1.33333Z" fill="#878686"/>
</svg>
