<svg width="16" height="16" viewBox="0 0 16 16" fill="none" xmlns="http://www.w3.org/2000/svg">
<path d="M8.0201 15.8404C7.78069 15.8404 7.62109 15.6808 7.62109 15.4414V11.7706C7.62109 11.5312 7.78069 11.3716 8.0201 11.3716C8.2595 11.3716 8.4191 11.5312 8.4191 11.7706V15.4414C8.4191 15.6808 8.2196 15.8404 8.0201 15.8404Z" fill="white"/>
<path d="M8.0201 15.8404C7.78069 15.8404 7.62109 15.6808 7.62109 15.4414V11.7706C7.62109 11.5312 7.78069 11.3716 8.0201 11.3716C8.2595 11.3716 8.4191 11.5312 8.4191 11.7706V15.4414C8.4191 15.6808 8.2196 15.8404 8.0201 15.8404Z" fill="#6C6A6A"/>
<path d="M13.5267 15.601H2.51424C2.27484 15.601 2.11523 15.4414 2.11523 15.202C2.11523 14.9626 2.27484 14.803 2.51424 14.803H13.5267C13.7661 14.803 13.9257 14.9626 13.9257 15.202C13.9257 15.4414 13.7262 15.601 13.5267 15.601Z" fill="white"/>
<path d="M13.5267 15.601H2.51424C2.27484 15.601 2.11523 15.4414 2.11523 15.202C2.11523 14.9626 2.27484 14.803 2.51424 14.803H13.5267C13.7661 14.803 13.9257 14.9626 13.9257 15.202C13.9257 15.4414 13.7262 15.601 13.5267 15.601Z" fill="#6C6A6A"/>
<path d="M8.01956 16C8.48232 16 8.85746 15.6249 8.85746 15.1621C8.85746 14.6994 8.48232 14.3242 8.01956 14.3242C7.5568 14.3242 7.18164 14.6994 7.18164 15.1621C7.18164 15.6249 7.5568 16 8.01956 16Z" fill="white"/>
<path d="M8.01956 16C8.48232 16 8.85746 15.6249 8.85746 15.1621C8.85746 14.6994 8.48232 14.3242 8.01956 14.3242C7.5568 14.3242 7.18164 14.6994 7.18164 15.1621C7.18164 15.6249 7.5568 16 8.01956 16Z" fill="#6C6A6A"/>
<path d="M12.9275 4.38901C12.2492 4.38901 11.7305 3.87031 11.7305 3.192C11.7305 2.5137 12.2492 1.995 12.9275 1.995C13.6058 1.995 14.1245 2.5137 14.1245 3.192C14.1245 3.87031 13.5659 4.38901 12.9275 4.38901ZM12.9275 2.793C12.728 2.793 12.5285 2.9526 12.5285 3.192C12.5285 3.4314 12.6881 3.591 12.9275 3.591C13.1669 3.591 13.3265 3.4314 13.3265 3.192C13.3265 2.9526 13.127 2.793 12.9275 2.793Z" fill="white"/>
<path d="M12.9275 4.38901C12.2492 4.38901 11.7305 3.87031 11.7305 3.192C11.7305 2.5137 12.2492 1.995 12.9275 1.995C13.6058 1.995 14.1245 2.5137 14.1245 3.192C14.1245 3.87031 13.5659 4.38901 12.9275 4.38901ZM12.9275 2.793C12.728 2.793 12.5285 2.9526 12.5285 3.192C12.5285 3.4314 12.6881 3.591 12.9275 3.591C13.1669 3.591 13.3265 3.4314 13.3265 3.192C13.3265 2.9526 13.127 2.793 12.9275 2.793Z" fill="#6C6A6A"/>
<path d="M2.51424 4.54869C2.27484 4.54869 2.11523 4.38909 2.11523 4.14968V2.27437C2.11523 2.03497 2.27484 1.87537 2.51424 1.87537C2.75364 1.87537 2.91324 2.03497 2.91324 2.27437V4.14968C2.91324 4.34919 2.75364 4.54869 2.51424 4.54869Z" fill="white"/>
<path d="M2.51424 4.54869C2.27484 4.54869 2.11523 4.38909 2.11523 4.14968V2.27437C2.11523 2.03497 2.27484 1.87537 2.51424 1.87537C2.75364 1.87537 2.91324 2.03497 2.91324 2.27437V4.14968C2.91324 4.34919 2.75364 4.54869 2.51424 4.54869Z" fill="#6C6A6A"/>
<path d="M4.38924 4.54869C4.14984 4.54869 3.99023 4.38909 3.99023 4.14968V2.27437C3.99023 2.03497 4.14984 1.87537 4.38924 1.87537C4.62864 1.87537 4.78824 2.03497 4.78824 2.27437V4.14968C4.78824 4.34919 4.58874 4.54869 4.38924 4.54869Z" fill="white"/>
<path d="M4.38924 4.54869C4.14984 4.54869 3.99023 4.38909 3.99023 4.14968V2.27437C3.99023 2.03497 4.14984 1.87537 4.38924 1.87537C4.62864 1.87537 4.78824 2.03497 4.78824 2.27437V4.14968C4.78824 4.34919 4.58874 4.54869 4.38924 4.54869Z" fill="#6C6A6A"/>
<path d="M6.2242 4.54869C5.9848 4.54869 5.8252 4.38909 5.8252 4.14968V2.27437C5.8252 2.03497 5.9848 1.87537 6.2242 1.87537C6.4636 1.87537 6.6232 2.03497 6.6232 2.27437V4.14968C6.6232 4.34919 6.4636 4.54869 6.2242 4.54869Z" fill="white"/>
<path d="M6.2242 4.54869C5.9848 4.54869 5.8252 4.38909 5.8252 4.14968V2.27437C5.8252 2.03497 5.9848 1.87537 6.2242 1.87537C6.4636 1.87537 6.6232 2.03497 6.6232 2.27437V4.14968C6.6232 4.34919 6.4636 4.54869 6.2242 4.54869Z" fill="#6C6A6A"/>
<path d="M14.7631 6.38404H1.19701C0.518703 6.38404 0 5.86534 0 5.18703V1.19701C0 0.518703 0.518703 0 1.19701 0H14.7631C15.4414 0 15.9601 0.518703 15.9601 1.19701V5.18703C15.9601 5.86534 15.4414 6.38404 14.7631 6.38404ZM1.23692 0.798005C0.997521 0.798005 0.83792 0.957606 0.83792 1.19701V5.18703C0.83792 5.42643 0.997521 5.58603 1.23692 5.58603H14.803C15.0424 5.58603 15.202 5.42643 15.202 5.18703V1.19701C15.202 0.957606 15.0424 0.798005 14.803 0.798005H1.23692Z" fill="white"/>
<path d="M14.7631 6.38404H1.19701C0.518703 6.38404 0 5.86534 0 5.18703V1.19701C0 0.518703 0.518703 0 1.19701 0H14.7631C15.4414 0 15.9601 0.518703 15.9601 1.19701V5.18703C15.9601 5.86534 15.4414 6.38404 14.7631 6.38404ZM1.23692 0.798005C0.997521 0.798005 0.83792 0.957606 0.83792 1.19701V5.18703C0.83792 5.42643 0.997521 5.58603 1.23692 5.58603H14.803C15.0424 5.58603 15.202 5.42643 15.202 5.18703V1.19701C15.202 0.957606 15.0424 0.798005 14.803 0.798005H1.23692Z" fill="#6C6A6A"/>
<path d="M12.9275 9.97507C12.2492 9.97507 11.7305 9.45637 11.7305 8.77806C11.7305 8.09976 12.2492 7.58105 12.9275 7.58105C13.6058 7.58105 14.1245 8.09976 14.1245 8.77806C14.1245 9.45637 13.5659 9.97507 12.9275 9.97507ZM12.9275 8.37906C12.728 8.37906 12.5285 8.53866 12.5285 8.77806C12.5285 9.01746 12.6881 9.17706 12.9275 9.17706C13.1669 9.17706 13.3265 9.01746 13.3265 8.77806C13.3265 8.53866 13.127 8.37906 12.9275 8.37906Z" fill="white"/>
<path d="M12.9275 9.97507C12.2492 9.97507 11.7305 9.45637 11.7305 8.77806C11.7305 8.09976 12.2492 7.58105 12.9275 7.58105C13.6058 7.58105 14.1245 8.09976 14.1245 8.77806C14.1245 9.45637 13.5659 9.97507 12.9275 9.97507ZM12.9275 8.37906C12.728 8.37906 12.5285 8.53866 12.5285 8.77806C12.5285 9.01746 12.6881 9.17706 12.9275 9.17706C13.1669 9.17706 13.3265 9.01746 13.3265 8.77806C13.3265 8.53866 13.127 8.37906 12.9275 8.37906Z" fill="#6C6A6A"/>
<path d="M2.51326 10.1346C2.27386 10.1346 2.11426 9.97502 2.11426 9.73562V7.86031C2.11426 7.6209 2.27386 7.4613 2.51326 7.4613C2.75266 7.4613 2.91226 7.6209 2.91226 7.86031V9.73562C2.91226 9.93512 2.75266 10.1346 2.51326 10.1346Z" fill="white"/>
<path d="M2.51326 10.1346C2.27386 10.1346 2.11426 9.97502 2.11426 9.73562V7.86031C2.11426 7.6209 2.27386 7.4613 2.51326 7.4613C2.75266 7.4613 2.91226 7.6209 2.91226 7.86031V9.73562C2.91226 9.93512 2.75266 10.1346 2.51326 10.1346Z" fill="#6C6A6A"/>
<path d="M4.38924 10.1346C4.14984 10.1346 3.99023 9.97502 3.99023 9.73562V7.86031C3.99023 7.6209 4.14984 7.4613 4.38924 7.4613C4.62864 7.4613 4.78824 7.6209 4.78824 7.86031V9.73562C4.78824 9.93512 4.58874 10.1346 4.38924 10.1346Z" fill="white"/>
<path d="M4.38924 10.1346C4.14984 10.1346 3.99023 9.97502 3.99023 9.73562V7.86031C3.99023 7.6209 4.14984 7.4613 4.38924 7.4613C4.62864 7.4613 4.78824 7.6209 4.78824 7.86031V9.73562C4.78824 9.93512 4.58874 10.1346 4.38924 10.1346Z" fill="#6C6A6A"/>
<path d="M6.2242 10.1346C5.9848 10.1346 5.8252 9.97502 5.8252 9.73562V7.86031C5.8252 7.6209 5.9848 7.4613 6.2242 7.4613C6.4636 7.4613 6.6232 7.6209 6.6232 7.86031V9.73562C6.6232 9.93512 6.4636 10.1346 6.2242 10.1346Z" fill="white"/>
<path d="M6.2242 10.1346C5.9848 10.1346 5.8252 9.97502 5.8252 9.73562V7.86031C5.8252 7.6209 5.9848 7.4613 6.2242 7.4613C6.4636 7.4613 6.6232 7.6209 6.6232 7.86031V9.73562C6.6232 9.93512 6.4636 10.1346 6.2242 10.1346Z" fill="#6C6A6A"/>
<path d="M14.7631 11.9701H1.19701C0.518703 11.9701 0 11.4514 0 10.7731V6.78307C0 6.10476 0.518703 5.58606 1.19701 5.58606H14.7631C15.4414 5.58606 15.9601 6.10476 15.9601 6.78307V10.7731C15.9601 11.4514 15.4414 11.9701 14.7631 11.9701ZM1.23692 6.38406C0.997521 6.38406 0.83792 6.54367 0.83792 6.78307V10.7731C0.83792 11.0125 0.997521 11.1721 1.23692 11.1721H14.803C15.0424 11.1721 15.202 11.0125 15.202 10.7731V6.78307C15.202 6.54367 15.0424 6.38406 14.803 6.38406H1.23692Z" fill="white"/>
<path d="M14.7631 11.9701H1.19701C0.518703 11.9701 0 11.4514 0 10.7731V6.78307C0 6.10476 0.518703 5.58606 1.19701 5.58606H14.7631C15.4414 5.58606 15.9601 6.10476 15.9601 6.78307V10.7731C15.9601 11.4514 15.4414 11.9701 14.7631 11.9701ZM1.23692 6.38406C0.997521 6.38406 0.83792 6.54367 0.83792 6.78307V10.7731C0.83792 11.0125 0.997521 11.1721 1.23692 11.1721H14.803C15.0424 11.1721 15.202 11.0125 15.202 10.7731V6.78307C15.202 6.54367 15.0424 6.38406 14.803 6.38406H1.23692Z" fill="#6C6A6A"/>
</svg>
