<svg width="16" height="12" viewBox="0 0 16 12" fill="none" xmlns="http://www.w3.org/2000/svg">
<path d="M10.76 11.16H5.24C2.36 11.16 0 8.68 0 5.6C0 2.52 2.36 0 5.24 0H10.76C13.64 0 16 2.52 16 5.6C16 8.68 13.64 11.16 10.76 11.16ZM5.24 0.8C2.8 0.8 0.8 2.96 0.8 5.6C0.8 8.24 2.8 10.4 5.24 10.4H10.76C13.2 10.36 15.2 8.24 15.2 5.6C15.2 2.96 13.2 0.8 10.76 0.8H5.24ZM10.56 9H5.48C3.72 9 2.24 7.48 2.24 5.56C2.24 3.68 3.68 2.12 5.48 2.12H10.56C12.32 2.12 13.8 3.64 13.8 5.56C13.76 7.48 12.32 9 10.56 9ZM5.48 2.96C4.16 2.96 3.04 4.12 3.04 5.6C3.04 7.04 4.12 8.24 5.48 8.24H10.56C11.88 8.24 13 7.08 13 5.6C13 4.16 11.92 2.96 10.56 2.96H5.48Z" fill="white"/>
<path d="M10.76 11.16H5.24C2.36 11.16 0 8.68 0 5.6C0 2.52 2.36 0 5.24 0H10.76C13.64 0 16 2.52 16 5.6C16 8.68 13.64 11.16 10.76 11.16ZM5.24 0.8C2.8 0.8 0.8 2.96 0.8 5.6C0.8 8.24 2.8 10.4 5.24 10.4H10.76C13.2 10.36 15.2 8.24 15.2 5.6C15.2 2.96 13.2 0.8 10.76 0.8H5.24ZM10.56 9H5.48C3.72 9 2.24 7.48 2.24 5.56C2.24 3.68 3.68 2.12 5.48 2.12H10.56C12.32 2.12 13.8 3.64 13.8 5.56C13.76 7.48 12.32 9 10.56 9ZM5.48 2.96C4.16 2.96 3.04 4.12 3.04 5.6C3.04 7.04 4.12 8.24 5.48 8.24H10.56C11.88 8.24 13 7.08 13 5.6C13 4.16 11.92 2.96 10.56 2.96H5.48Z" fill="#6C6A6A"/>
</svg>
