<svg width="14" height="17" viewBox="0 0 14 17" fill="none" xmlns="http://www.w3.org/2000/svg">
<path d="M8.30078 6.28569L11.0677 3.87968L8.30078 1.51376V6.28569Z" fill="white"/>
<path d="M8.30078 6.28569L11.0677 3.87968L8.30078 1.51376V6.28569Z" fill="#EC873E"/>
<path d="M6.93734 16.9122C3.12782 16.9122 0 13.8245 0 9.97485C0 6.12523 3.12782 3.03751 6.93734 3.03751C7.33835 3.03751 7.69925 3.07761 8.10025 3.11771C8.42105 3.15781 8.66165 3.47861 8.58145 3.79941C8.54135 4.12021 8.22055 4.36081 7.89975 4.28061C7.57895 4.24051 7.25814 4.20041 6.93734 4.20041C3.76942 4.24051 1.20301 6.80693 1.20301 9.97485C1.20301 13.1428 3.76942 15.7092 6.93734 15.7092C10.1053 15.7092 12.6717 13.1428 12.6717 9.97485C12.6717 9.89465 12.6717 9.77435 12.6717 9.69415C12.6717 9.37335 12.9123 9.09264 13.2331 9.05254C13.594 9.05254 13.8346 9.29315 13.8747 9.61395C13.8747 9.73425 13.8747 9.81445 13.8747 9.93475C13.8747 13.8245 10.7469 16.9122 6.93734 16.9122Z" fill="white"/>
<path d="M6.93734 16.9122C3.12782 16.9122 0 13.8245 0 9.97485C0 6.12523 3.12782 3.03751 6.93734 3.03751C7.33835 3.03751 7.69925 3.07761 8.10025 3.11771C8.42105 3.15781 8.66165 3.47861 8.58145 3.79941C8.54135 4.12021 8.22055 4.36081 7.89975 4.28061C7.57895 4.24051 7.25814 4.20041 6.93734 4.20041C3.76942 4.24051 1.20301 6.80693 1.20301 9.97485C1.20301 13.1428 3.76942 15.7092 6.93734 15.7092C10.1053 15.7092 12.6717 13.1428 12.6717 9.97485C12.6717 9.89465 12.6717 9.77435 12.6717 9.69415C12.6717 9.37335 12.9123 9.09264 13.2331 9.05254C13.594 9.05254 13.8346 9.29315 13.8747 9.61395C13.8747 9.73425 13.8747 9.81445 13.8747 9.93475C13.8747 13.8245 10.7469 16.9122 6.93734 16.9122Z" fill="#EC873E"/>
<path d="M8.30072 6.88721C8.22052 6.88721 8.14032 6.88721 8.06012 6.84711C7.85962 6.76691 7.69922 6.5263 7.69922 6.2857V1.51377C7.69922 1.27317 7.81952 1.07267 8.06012 0.952369C8.26062 0.872168 8.54132 0.872168 8.70172 1.03257L11.4686 3.39848C11.5889 3.51878 11.6691 3.67919 11.6691 3.83959C11.6691 3.99999 11.5889 4.20049 11.4686 4.28069L8.70172 6.6466C8.58142 6.80701 8.42102 6.88721 8.30072 6.88721ZM8.90223 2.83708V5.00249L10.1453 3.91979L8.90223 2.83708Z" fill="#EC873E"/>
</svg>
