<svg width="12" height="16" viewBox="0 0 12 16" fill="none" xmlns="http://www.w3.org/2000/svg">
<path d="M2.44991 9.80392C2.18252 9.21569 2.02973 8.58824 2.02973 7.96079C2.02973 5.60785 3.93963 3.64706 6.2697 3.64706C6.3461 3.64706 6.3843 3.64706 6.4607 3.64706V5.92157C6.4607 6.15687 6.61349 6.39216 6.80448 6.47059C6.88087 6.50981 6.95727 6.50981 7.03366 6.50981C7.18646 6.50981 7.33925 6.43138 7.45384 6.35295L10.0513 3.68628C10.1659 3.56863 10.2041 3.41177 10.2041 3.25491C10.2041 3.09804 10.1659 2.94118 10.0513 2.82353L7.41564 0.156866C7.26285 3.66196e-06 6.99547 -0.0784277 6.80448 0.0392193C6.57529 0.117651 6.4607 0.352945 6.4607 0.588239V2.47059C6.3843 2.47059 6.3461 2.47059 6.2697 2.47059C3.29026 2.47059 0.883789 4.94118 0.883789 7.96079C0.883789 8.78432 1.07478 9.60785 1.41856 10.3529C1.53315 10.549 1.72414 10.6667 1.91513 10.6667C1.99153 10.6667 2.06793 10.6667 2.18252 10.5882C2.44991 10.4314 2.6027 10.0784 2.44991 9.80392Z" fill="white"/>
<path d="M2.44991 9.80392C2.18252 9.21569 2.02973 8.58824 2.02973 7.96079C2.02973 5.60785 3.93963 3.64706 6.2697 3.64706C6.3461 3.64706 6.3843 3.64706 6.4607 3.64706V5.92157C6.4607 6.15687 6.61349 6.39216 6.80448 6.47059C6.88087 6.50981 6.95727 6.50981 7.03366 6.50981C7.18646 6.50981 7.33925 6.43138 7.45384 6.35295L10.0513 3.68628C10.1659 3.56863 10.2041 3.41177 10.2041 3.25491C10.2041 3.09804 10.1659 2.94118 10.0513 2.82353L7.41564 0.156866C7.26285 3.66196e-06 6.99547 -0.0784277 6.80448 0.0392193C6.57529 0.117651 6.4607 0.352945 6.4607 0.588239V2.47059C6.3843 2.47059 6.3461 2.47059 6.2697 2.47059C3.29026 2.47059 0.883789 4.94118 0.883789 7.96079C0.883789 8.78432 1.07478 9.60785 1.41856 10.3529C1.53315 10.549 1.72414 10.6667 1.91513 10.6667C1.99153 10.6667 2.06793 10.6667 2.18252 10.5882C2.44991 10.4314 2.6027 10.0784 2.44991 9.80392Z" fill="#6C6A6A"/>
<path d="M10.2804 5.37254C10.5478 5.2549 10.8915 5.37254 11.0443 5.64705C11.3881 6.39215 11.5791 7.21568 11.6173 8.03921C11.6173 11.0588 9.21082 13.5294 6.23138 13.5294H6.04039V15.4118C6.04039 15.6471 5.9258 15.8823 5.69661 15.9608C5.62021 16 5.54382 16 5.46742 16C5.31463 16 5.16184 15.9608 5.04724 15.8431L2.41158 13.1765C2.33519 13.0588 2.25879 12.902 2.25879 12.7451C2.25879 12.5882 2.29699 12.4314 2.41158 12.3137L5.04724 9.64705C5.20003 9.49019 5.42922 9.45098 5.65841 9.52941C5.8494 9.60784 6.00219 9.84313 6.00219 10.0784V12.3529H6.19318C8.52326 12.3529 10.4332 10.3922 10.4332 8.03921C10.4332 7.37254 10.2804 6.74509 10.013 6.15686C9.86019 5.88235 10.013 5.52941 10.2804 5.37254Z" fill="white"/>
<path d="M10.2804 5.37254C10.5478 5.2549 10.8915 5.37254 11.0443 5.64705C11.3881 6.39215 11.5791 7.21568 11.6173 8.03921C11.6173 11.0588 9.21082 13.5294 6.23138 13.5294H6.04039V15.4118C6.04039 15.6471 5.9258 15.8823 5.69661 15.9608C5.62021 16 5.54382 16 5.46742 16C5.31463 16 5.16184 15.9608 5.04724 15.8431L2.41158 13.1765C2.33519 13.0588 2.25879 12.902 2.25879 12.7451C2.25879 12.5882 2.29699 12.4314 2.41158 12.3137L5.04724 9.64705C5.20003 9.49019 5.42922 9.45098 5.65841 9.52941C5.8494 9.60784 6.00219 9.84313 6.00219 10.0784V12.3529H6.19318C8.52326 12.3529 10.4332 10.3922 10.4332 8.03921C10.4332 7.37254 10.2804 6.74509 10.013 6.15686C9.86019 5.88235 10.013 5.52941 10.2804 5.37254Z" fill="#6C6A6A"/>
</svg>
