<svg width="12" height="12" viewBox="0 0 12 12" fill="none" xmlns="http://www.w3.org/2000/svg">
<path d="M11.5387 6.58216C11.6614 6.58216 11.7535 6.55147 11.8456 6.45939C12.0297 6.30594 12.0604 5.99904 11.8763 5.81489L7.54892 0.904407C7.39546 0.720264 7.08856 0.689574 6.90442 0.873717C6.72027 1.02717 6.68958 1.33407 6.87372 1.51822L11.2011 6.4287C11.2932 6.52078 11.4159 6.58216 11.5387 6.58216Z" fill="#FF8A35"/>
<path d="M7.2113 11.4927C7.33406 11.4927 7.45682 11.4313 7.5489 11.3392L11.8763 6.42876C11.999 6.27531 12.0297 6.09117 11.9683 5.93771C11.8763 5.75357 11.7228 5.6615 11.5387 5.6615H0.459381C0.213857 5.6615 -0.000976562 5.87633 -0.000976562 6.12186C-0.000976562 6.36738 0.213857 6.58222 0.459381 6.58222H10.5259L6.8737 10.7254C6.72025 10.9096 6.72025 11.2165 6.90439 11.3699C6.99647 11.462 7.11923 11.4927 7.2113 11.4927Z" fill="#FF8A35"/>
</svg>
