<svg width="16" height="16" viewBox="0 0 16 16" fill="none" xmlns="http://www.w3.org/2000/svg">
<path d="M4.00039 11.3C3.00039 10.1 2.30039 8.5 2.30039 6.8C2.30039 3 5.30039 0 9.10039 0C12.9004 0 15.9004 3 15.9004 6.8C15.9004 10.5 12.8004 13.6 9.10039 13.6C7.50039 13.6 6.00039 13 4.80039 12.1L1.00039 15.8C0.900388 15.9 0.700389 16 0.600389 16C0.500388 16 0.300388 15.9 0.200388 15.8C0.000388145 15.6 0.000388145 15.2 0.200388 15L4.00039 11.3ZM9.10039 12.4C12.2004 12.4 14.7004 9.9 14.7004 6.8C14.7004 3.7 12.2004 1.2 9.10039 1.2C6.00039 1.2 3.50039 3.7 3.50039 6.8C3.50039 9.9 6.00039 12.4 9.10039 12.4Z" fill="#343A40"/>
</svg>
