<svg width="12" height="13" viewBox="0 0 12 13" fill="none" xmlns="http://www.w3.org/2000/svg">
<path d="M3.41684 8.97748C3.75404 8.97748 4.02739 8.70413 4.02739 8.36693C4.02739 8.02973 3.75404 7.75637 3.41684 7.75637C3.07964 7.75637 2.80628 8.02973 2.80628 8.36693C2.80628 8.70413 3.07964 8.97748 3.41684 8.97748ZM4.02739 10.1986C4.02739 10.5358 3.75404 10.8092 3.41684 10.8092C3.07964 10.8092 2.80628 10.5358 2.80628 10.1986C2.80628 9.8614 3.07964 9.58804 3.41684 9.58804C3.75404 9.58804 4.02739 9.8614 4.02739 10.1986ZM3.41684 7.14581C3.75404 7.14581 4.02739 6.87246 4.02739 6.53526C4.02739 6.19805 3.75404 5.9247 3.41684 5.9247C3.07964 5.9247 2.80628 6.19805 2.80628 6.53526C2.80628 6.87246 3.07964 7.14581 3.41684 7.14581ZM4.02739 4.70359C4.02739 5.04079 3.75404 5.31414 3.41684 5.31414C3.07964 5.31414 2.80628 5.04079 2.80628 4.70359C2.80628 4.36638 3.07964 4.09303 3.41684 4.09303C3.75404 4.09303 4.02739 4.36638 4.02739 4.70359ZM3.41684 3.48247C3.75404 3.48247 4.02739 3.20912 4.02739 2.87192C4.02739 2.53471 3.75404 2.26136 3.41684 2.26136C3.07964 2.26136 2.80628 2.53471 2.80628 2.87192C2.80628 3.20912 3.07964 3.48247 3.41684 3.48247ZM7.69074 1.80344V2.26136H10.5909C11.3496 2.26136 11.9646 2.87641 11.9646 3.63511V11.8776C11.9646 12.1305 11.7596 12.3355 11.5067 12.3355H9.67505V10.6565C9.67505 10.4879 9.53837 10.3512 9.36977 10.3512H7.84338C7.67477 10.3512 7.5381 10.4879 7.5381 10.6565V12.3355H1.43253C1.17963 12.3355 0.974609 12.1305 0.974609 11.8776V1.80344C0.974609 1.04474 1.58966 0.429688 2.34836 0.429688H6.31698C7.07569 0.429688 7.69074 1.04474 7.69074 1.80344ZM2.34836 1.34552C2.09546 1.34552 1.89044 1.55054 1.89044 1.80344V11.4197H5.24851V3.63511C5.24851 2.87641 5.86356 2.26136 6.62226 2.26136H6.7749V1.80344C6.7749 1.55054 6.56988 1.34552 6.31698 1.34552H2.34836ZM10.133 8.36693C10.133 8.02973 9.85961 7.75637 9.52241 7.75637C9.18521 7.75637 8.91185 8.02973 8.91185 8.36693C8.91185 8.70413 9.18521 8.97748 9.52241 8.97748C9.85961 8.97748 10.133 8.70413 10.133 8.36693ZM7.69074 8.97748C8.02794 8.97748 8.30129 8.70413 8.30129 8.36693C8.30129 8.02973 8.02794 7.75637 7.69074 7.75637C7.35354 7.75637 7.08018 8.02973 7.08018 8.36693C7.08018 8.70413 7.35354 8.97748 7.69074 8.97748ZM10.133 6.53526C10.133 6.19806 9.85961 5.9247 9.52241 5.9247C9.18521 5.9247 8.91185 6.19806 8.91185 6.53526C8.91185 6.87246 9.18521 7.14581 9.52241 7.14581C9.85961 7.14581 10.133 6.87246 10.133 6.53526ZM7.69074 7.14581C8.02794 7.14581 8.30129 6.87246 8.30129 6.53526C8.30129 6.19806 8.02794 5.9247 7.69074 5.9247C7.35354 5.9247 7.08018 6.19806 7.08018 6.53526C7.08018 6.87246 7.35354 7.14581 7.69074 7.14581ZM10.133 4.70359C10.133 4.36638 9.85961 4.09303 9.52241 4.09303C9.18521 4.09303 8.91185 4.36638 8.91185 4.70359C8.91185 5.04079 9.18521 5.31414 9.52241 5.31414C9.85961 5.31414 10.133 5.04079 10.133 4.70359ZM7.69074 5.31414C8.02794 5.31414 8.30129 5.04079 8.30129 4.70359C8.30129 4.36638 8.02794 4.09303 7.69074 4.09303C7.35354 4.09303 7.08018 4.36638 7.08018 4.70359C7.08018 5.04079 7.35354 5.31414 7.69074 5.31414Z" fill="#454242"/>
</svg>
