<svg width="14" height="16" viewBox="0 0 14 16" fill="none" xmlns="http://www.w3.org/2000/svg">
<path d="M13.7544 3.36842C13.7544 1.48371 10.7469 0 6.85714 0C2.96742 0 0 1.48371 0 3.36842V7.65915V12.6717C0 14.5564 3.00752 16.0401 6.89724 16.0401C10.787 16.0401 13.7945 14.5564 13.7945 12.6717L13.7544 3.36842ZM6.89724 0.802005C9.78446 0.802005 12.9925 1.84461 12.9925 3.36842C12.9925 4.89223 9.78446 5.93484 6.89724 5.93484C4.01003 5.93484 0.802005 4.85213 0.802005 3.36842C0.802005 1.88471 4.01003 0.802005 6.89724 0.802005ZM0.802005 4.93233C1.96491 5.97494 4.21053 6.69674 6.89724 6.69674C9.58396 6.69674 11.8296 5.97494 12.9925 4.93233V7.65915C12.9925 9.18296 9.78446 10.2256 6.89724 10.2256C4.01003 10.2256 0.802005 9.14286 0.802005 7.65915V4.93233ZM12.9524 12.6717C12.9524 14.1955 9.74436 15.2381 6.85714 15.2381C3.96992 15.2381 0.802005 14.1554 0.802005 12.6717V9.26316C1.96491 10.3058 4.21053 11.0276 6.89724 11.0276C9.58396 11.0276 11.8296 10.3058 12.9925 9.26316L12.9524 12.6717Z" fill="white"/>
<path d="M13.7544 3.36842C13.7544 1.48371 10.7469 0 6.85714 0C2.96742 0 0 1.48371 0 3.36842V7.65915V12.6717C0 14.5564 3.00752 16.0401 6.89724 16.0401C10.787 16.0401 13.7945 14.5564 13.7945 12.6717L13.7544 3.36842ZM6.89724 0.802005C9.78446 0.802005 12.9925 1.84461 12.9925 3.36842C12.9925 4.89223 9.78446 5.93484 6.89724 5.93484C4.01003 5.93484 0.802005 4.85213 0.802005 3.36842C0.802005 1.88471 4.01003 0.802005 6.89724 0.802005ZM0.802005 4.93233C1.96491 5.97494 4.21053 6.69674 6.89724 6.69674C9.58396 6.69674 11.8296 5.97494 12.9925 4.93233V7.65915C12.9925 9.18296 9.78446 10.2256 6.89724 10.2256C4.01003 10.2256 0.802005 9.14286 0.802005 7.65915V4.93233ZM12.9524 12.6717C12.9524 14.1955 9.74436 15.2381 6.85714 15.2381C3.96992 15.2381 0.802005 14.1554 0.802005 12.6717V9.26316C1.96491 10.3058 4.21053 11.0276 6.89724 11.0276C9.58396 11.0276 11.8296 10.3058 12.9925 9.26316L12.9524 12.6717Z" fill="#6C6A6A"/>
</svg>
