<svg width="16" height="14" viewBox="0 0 16 14" fill="none" xmlns="http://www.w3.org/2000/svg">
<path d="M5.60996 8.33334C6.82027 8.33334 7.83723 9.18318 8.12559 10.3333L15.3504 10.3333C15.7091 10.3333 15.9998 10.6318 15.9998 11C15.9998 11.3273 15.7701 11.5995 15.4672 11.6559L15.3504 11.6667L8.12525 11.668C7.83645 12.8175 6.8198 13.6667 5.60996 13.6667C4.40013 13.6667 3.38348 12.8175 3.09468 11.668L1.0644 11.6667C0.70577 11.6667 0.415039 11.3682 0.415039 11C0.415039 10.6727 0.644752 10.4005 0.94768 10.3441L1.0644 10.3333L3.09434 10.3333C3.38269 9.18318 4.39966 8.33334 5.60996 8.33334ZM10.8049 0.333344C12.0152 0.333344 13.0322 1.18318 13.3205 2.33332L15.3504 2.33334C15.7091 2.33334 15.9998 2.63182 15.9998 3.00001C15.9998 3.32729 15.7701 3.59949 15.4672 3.65594L15.3504 3.66668L13.3202 3.66804C13.0314 4.8175 12.0147 5.66668 10.8049 5.66668C9.59505 5.66668 8.57841 4.8175 8.2896 3.66804L1.0644 3.66668C0.70577 3.66668 0.415039 3.3682 0.415039 3.00001C0.415039 2.67273 0.644752 2.40053 0.94768 2.34408L1.0644 2.33334L8.28927 2.33332C8.57762 1.18318 9.59459 0.333344 10.8049 0.333344Z" fill="#6C6A6A"/>
</svg>
