<svg width="17" height="9" viewBox="0 0 17 9" fill="none" xmlns="http://www.w3.org/2000/svg">
<g clip-path="url(#clip0_2179_237672)">
<path d="M16.5379 0.341463C16.4986 0.273171 16.4592 0.204878 16.4199 0.170732C16.3805 0.136585 16.3018 0.102439 16.2231 0.0682927C16.1444 0.0341463 16.0657 0 16.0263 0H11.304C10.9498 0 10.6743 0.239024 10.6743 0.512195C10.6743 0.785366 10.9498 1.02439 11.2646 1.02439H14.5309L8.5099 6.00976L5.75519 3.89268C5.51907 3.72195 5.16489 3.72195 4.92878 3.92683L0.59994 7.71707C0.363822 7.92195 0.363822 8.22927 0.59994 8.43415C0.717999 8.53659 0.875412 8.57073 1.03282 8.57073C1.19024 8.57073 1.34765 8.53659 1.46571 8.43415L5.40101 4.98537L8.11637 7.06829C8.35249 7.23902 8.70667 7.23902 8.90343 7.06829L15.3967 1.70732V4.6439C15.3967 4.91707 15.6722 5.1561 15.987 5.1561C16.3018 5.1561 16.5773 4.91707 16.5773 4.6439V0.512195C16.5773 0.443902 16.5773 0.409756 16.5379 0.341463Z" fill="white"/>
<path d="M16.5379 0.341463C16.4986 0.273171 16.4592 0.204878 16.4199 0.170732C16.3805 0.136585 16.3018 0.102439 16.2231 0.0682927C16.1444 0.0341463 16.0657 0 16.0263 0H11.304C10.9498 0 10.6743 0.239024 10.6743 0.512195C10.6743 0.785366 10.9498 1.02439 11.2646 1.02439H14.5309L8.5099 6.00976L5.75519 3.89268C5.51907 3.72195 5.16489 3.72195 4.92878 3.92683L0.59994 7.71707C0.363822 7.92195 0.363822 8.22927 0.59994 8.43415C0.717999 8.53659 0.875412 8.57073 1.03282 8.57073C1.19024 8.57073 1.34765 8.53659 1.46571 8.43415L5.40101 4.98537L8.11637 7.06829C8.35249 7.23902 8.70667 7.23902 8.90343 7.06829L15.3967 1.70732V4.6439C15.3967 4.91707 15.6722 5.1561 15.987 5.1561C16.3018 5.1561 16.5773 4.91707 16.5773 4.6439V0.512195C16.5773 0.443902 16.5773 0.409756 16.5379 0.341463Z" fill="#878686"/>
</g>
<defs>
<clipPath id="clip0_2179_237672">
<rect width="16.1348" height="8.60488" fill="white" transform="translate(0.442383)"/>
</clipPath>
</defs>
</svg>
