<svg width="15" height="14" viewBox="0 0 15 14" fill="none" xmlns="http://www.w3.org/2000/svg">
<path d="M7.45603 1.05C10.6607 1.05 13.2516 3.71 13.2516 7C13.2516 10.29 10.6607 12.95 7.45603 12.95C4.25142 12.95 1.66045 10.29 1.66045 7C1.66045 3.71 4.25142 1.05 7.45603 1.05ZM7.45603 0C3.70595 0 0.637695 3.15 0.637695 7C0.637695 10.85 3.70595 14 7.45603 14C11.2061 14 14.2744 10.85 14.2744 7C14.2744 3.15 11.2061 0 7.45603 0Z" fill="white"/>
<path d="M7.45603 1.05C10.6607 1.05 13.2516 3.71 13.2516 7C13.2516 10.29 10.6607 12.95 7.45603 12.95C4.25142 12.95 1.66045 10.29 1.66045 7C1.66045 3.71 4.25142 1.05 7.45603 1.05ZM7.45603 0C3.70595 0 0.637695 3.15 0.637695 7C0.637695 10.85 3.70595 14 7.45603 14C11.2061 14 14.2744 10.85 14.2744 7C14.2744 3.15 11.2061 0 7.45603 0Z" fill="#6C6A6A"/>
<path d="M5.6488 10.22C5.54653 10.22 5.47834 10.185 5.41016 10.15C5.17152 10.01 5.06924 9.69503 5.20561 9.45003L8.06931 4.37503C8.20568 4.13003 8.5125 4.02503 8.75115 4.16503C8.98979 4.30503 9.09206 4.62003 8.9557 4.86503L6.09199 9.97503C5.98972 10.115 5.81926 10.22 5.6488 10.22Z" fill="white"/>
<path d="M5.6488 10.22C5.54653 10.22 5.47834 10.185 5.41016 10.15C5.17152 10.01 5.06924 9.69503 5.20561 9.45003L8.06931 4.37503C8.20568 4.13003 8.5125 4.02503 8.75115 4.16503C8.98979 4.30503 9.09206 4.62003 8.9557 4.86503L6.09199 9.97503C5.98972 10.115 5.81926 10.22 5.6488 10.22Z" fill="#6C6A6A"/>
<path d="M9.26276 7.63001C9.02411 7.63001 8.81956 7.45501 8.75138 7.21001L8.34228 4.97001L6.22859 5.63501C5.95586 5.70501 5.68313 5.56501 5.58085 5.28501C5.51267 5.00501 5.64904 4.72501 5.92177 4.62001L9.12639 3.60501L9.77413 6.96501C9.84231 7.24501 9.63776 7.52501 9.36503 7.59501C9.33094 7.63001 9.29685 7.63001 9.26276 7.63001Z" fill="white"/>
<path d="M9.26276 7.63001C9.02411 7.63001 8.81956 7.45501 8.75138 7.21001L8.34228 4.97001L6.22859 5.63501C5.95586 5.70501 5.68313 5.56501 5.58085 5.28501C5.51267 5.00501 5.64904 4.72501 5.92177 4.62001L9.12639 3.60501L9.77413 6.96501C9.84231 7.24501 9.63776 7.52501 9.36503 7.59501C9.33094 7.63001 9.29685 7.63001 9.26276 7.63001Z" fill="#6C6A6A"/>
</svg>
