<svg width="16" height="16" viewBox="0 0 16 16" fill="none" xmlns="http://www.w3.org/2000/svg">
<path d="M8.08496 6.27285e-08C6.10154 -0.000256797 4.19391 0.788334 2.75666 2.20265C1.31941 3.61697 0.462512 5.5488 0.363217 7.59854C0.263922 9.64828 0.929822 11.6591 2.22319 13.215C3.51655 14.771 5.33841 15.753 7.31191 15.958V6.73115L5.53777 8.56692C5.46595 8.64124 5.38068 8.70019 5.28684 8.74041C5.193 8.78063 5.09241 8.80133 4.99084 8.80133C4.88926 8.80133 4.78869 8.78063 4.69485 8.74041C4.601 8.70019 4.51573 8.64124 4.4439 8.56692C4.37208 8.4926 4.31511 8.40437 4.27624 8.30727C4.23737 8.21017 4.21737 8.10609 4.21737 8.00099C4.21737 7.89589 4.23737 7.79181 4.27624 7.69471C4.31511 7.59761 4.37208 7.50938 4.4439 7.43506L7.53609 4.23547L7.57089 4.20347L7.6134 4.16748C7.66436 4.12572 7.7202 4.09078 7.7796 4.06348C7.84281 4.03724 7.9091 4.01977 7.97674 4.0115H8.02312C8.08856 4.00279 8.15481 4.00279 8.22025 4.0115C8.28331 4.02621 8.34434 4.04905 8.40191 4.07949L8.44443 4.10348C8.50513 4.13823 8.56103 4.18128 8.61063 4.23146L11.7028 7.43106C11.8479 7.58115 11.9294 7.78473 11.9294 7.99699C11.9294 8.20926 11.8479 8.41282 11.7028 8.56292C11.5578 8.71301 11.361 8.79734 11.1559 8.79734C10.9508 8.79734 10.754 8.71301 10.609 8.56292L8.85801 6.73115V15.958C10.8315 15.753 12.6534 14.771 13.9467 13.215C15.2401 11.6591 15.906 9.64828 15.8067 7.59854C15.7074 5.5488 14.8505 3.61697 13.4133 2.20265C11.976 0.788334 10.0684 -0.000256797 8.08496 6.27285e-08Z" fill="#FFC107"/>
</svg>
