<svg width="16" height="16" viewBox="0 0 16 16" fill="none" xmlns="http://www.w3.org/2000/svg">
<path d="M12.56 3.04004H8.00004C7.76004 3.04004 7.60004 3.20004 7.60004 3.44004V7.60004H3.44004C3.20004 7.60004 3.04004 7.76004 3.04004 8.00004V12.56C3.04004 12.8 3.20004 12.96 3.44004 12.96H8.00004C8.24004 12.96 8.40004 12.8 8.40004 12.56V8.40004H12.56C12.8 8.40004 12.96 8.24004 12.96 8.00004V3.44004C12.96 3.20004 12.76 3.04004 12.56 3.04004ZM7.60004 12.16H3.84004V8.40004H7.60004V12.16ZM12.16 7.60004H8.40004V3.84004H12.16V7.60004Z" fill="white"/>
<path d="M12.56 3.04004H8.00004C7.76004 3.04004 7.60004 3.20004 7.60004 3.44004V7.60004H3.44004C3.20004 7.60004 3.04004 7.76004 3.04004 8.00004V12.56C3.04004 12.8 3.20004 12.96 3.44004 12.96H8.00004C8.24004 12.96 8.40004 12.8 8.40004 12.56V8.40004H12.56C12.8 8.40004 12.96 8.24004 12.96 8.00004V3.44004C12.96 3.20004 12.76 3.04004 12.56 3.04004ZM7.60004 12.16H3.84004V8.40004H7.60004V12.16ZM12.16 7.60004H8.40004V3.84004H12.16V7.60004Z" fill="#6C6A6A"/>
<path d="M8.76 16H2.68C1.2 16 0 14.8 0 13.32V7.24C0 5.76 1.2 4.56 2.68 4.56H4.56V2.68C4.56 1.2 5.76 0 7.24 0H13.32C14.8 0 16 1.2 16 2.68V8.76C16 10.24 14.8 11.44 13.32 11.44H11.44V13.32C11.44 14.8 10.24 16 8.76 16ZM2.68 5.36C1.64 5.36 0.8 6.2 0.8 7.24V13.32C0.8 14.32 1.64 15.2 2.68 15.2H8.76C9.8 15.2 10.64 14.36 10.64 13.32V11.04C10.64 10.8 10.8 10.64 11.04 10.64H13.32C14.36 10.64 15.2 9.8 15.2 8.76V2.68C15.2 1.64 14.32 0.8 13.32 0.8H7.24C6.2 0.8 5.36 1.64 5.36 2.68V4.96C5.36 5.2 5.2 5.36 4.96 5.36H2.68Z" fill="white"/>
<path d="M8.76 16H2.68C1.2 16 0 14.8 0 13.32V7.24C0 5.76 1.2 4.56 2.68 4.56H4.56V2.68C4.56 1.2 5.76 0 7.24 0H13.32C14.8 0 16 1.2 16 2.68V8.76C16 10.24 14.8 11.44 13.32 11.44H11.44V13.32C11.44 14.8 10.24 16 8.76 16ZM2.68 5.36C1.64 5.36 0.8 6.2 0.8 7.24V13.32C0.8 14.32 1.64 15.2 2.68 15.2H8.76C9.8 15.2 10.64 14.36 10.64 13.32V11.04C10.64 10.8 10.8 10.64 11.04 10.64H13.32C14.36 10.64 15.2 9.8 15.2 8.76V2.68C15.2 1.64 14.32 0.8 13.32 0.8H7.24C6.2 0.8 5.36 1.64 5.36 2.68V4.96C5.36 5.2 5.2 5.36 4.96 5.36H2.68Z" fill="#6C6A6A"/>
</svg>
